<svg width="1680" height="962" viewBox="0 0 1680 962" fill="none" xmlns="http://www.w3.org/2000/svg">
<path d="M1680 0H0V962H1680V0Z" fill="#212121"/>
<path d="M31.5 51.5357C31.5 52.9025 31.8687 54.2134 32.5251 55.1798C33.1815 56.1463 34.0717 56.6893 35 56.6893C35.9283 56.6893 36.8185 56.1463 37.4749 55.1798C38.1313 54.2134 38.5 52.9025 38.5 51.5357C38.5 50.1689 38.1313 48.8581 37.4749 47.8916C36.8185 46.9251 35.9283 46.3821 35 46.3821C34.0717 46.3821 33.1815 46.9251 32.5251 47.8916C31.8687 48.8581 31.5 50.1689 31.5 51.5357V51.5357Z" stroke="#3E7CB1"/>
<path d="M29.168 154.607C29.168 156.885 29.7826 159.07 30.8765 160.681C31.9705 162.292 33.4542 163.196 35.0013 163.196C36.5484 163.196 38.0321 162.292 39.1261 160.681C40.2201 159.07 40.8346 156.885 40.8346 154.607C40.8346 152.329 40.2201 150.144 39.1261 148.534C38.0321 146.923 36.5484 146.018 35.0013 146.018C33.4542 146.018 31.9705 146.923 30.8765 148.534C29.7826 150.144 29.168 152.329 29.168 154.607V154.607Z" stroke="#3E7CB1"/>
<path d="M37.3346 254.243L32.668 261.114L37.3346 254.243Z" stroke="#3E7CB1"/>
<path d="M42 350.443L28 371.057L42 350.443Z" stroke="#3E7CB1"/>
<path d="M29.168 463.821C29.168 466.099 29.7826 468.284 30.8765 469.895C31.9705 471.506 33.4542 472.411 35.0013 472.411C36.5484 472.411 38.0321 471.506 39.1261 469.895C40.2201 468.284 40.8346 466.099 40.8346 463.821C40.8346 461.543 40.2201 459.359 39.1261 457.748C38.0321 456.137 36.5484 455.232 35.0013 455.232C33.4542 455.232 31.9705 456.137 30.8765 457.748C29.7826 459.359 29.168 461.543 29.168 463.821V463.821Z" stroke="#3E7CB1"/>
<path d="M29.168 566.893C29.168 569.171 29.7826 571.356 30.8765 572.966C31.9705 574.577 33.4542 575.482 35.0013 575.482C36.5484 575.482 38.0321 574.577 39.1261 572.966C40.2201 571.356 40.8346 569.171 40.8346 566.893C40.8346 564.615 40.2201 562.43 39.1261 560.819C38.0321 559.209 36.5484 558.304 35.0013 558.304C33.4542 558.304 31.9705 559.209 30.8765 560.819C29.7826 562.43 29.168 564.615 29.168 566.893V566.893Z" stroke="#3E7CB1"/>
<path d="M37.3346 666.529L32.668 673.4L37.3346 666.529Z" stroke="#3E7CB1"/>
<path d="M29.168 773.036C29.168 775.314 29.7826 777.498 30.8765 779.109C31.9705 780.72 33.4542 781.625 35.0013 781.625C36.5484 781.625 38.0321 780.72 39.1261 779.109C40.2201 777.498 40.8346 775.314 40.8346 773.036C40.8346 770.758 40.2201 768.573 39.1261 766.962C38.0321 765.351 36.5484 764.446 35.0013 764.446C33.4542 764.446 31.9705 765.351 30.8765 766.962C29.7826 768.573 29.168 770.758 29.168 773.036V773.036Z" stroke="#3E7CB1"/>
<path d="M37.3346 872.671L32.668 879.543L37.3346 872.671Z" stroke="#3E7CB1"/>
<path d="M107.335 48.1L102.668 54.9714L107.335 48.1Z" stroke="#3E7CB1"/>
<path d="M112 144.3L98 164.914L112 144.3Z" stroke="#3E7CB1"/>
<path d="M112 247.371L98 267.986L112 247.371Z" stroke="#3E7CB1"/>
<path d="M99.168 360.75C99.168 363.028 99.7826 365.213 100.877 366.823C101.97 368.434 103.454 369.339 105.001 369.339C106.548 369.339 108.032 368.434 109.126 366.823C110.22 365.213 110.835 363.028 110.835 360.75C110.835 358.472 110.22 356.287 109.126 354.676C108.032 353.066 106.548 352.161 105.001 352.161C103.454 352.161 101.97 353.066 100.877 354.676C99.7826 356.287 99.168 358.472 99.168 360.75V360.75Z" stroke="#3E7CB1"/>
<path d="M103.832 463.821C103.832 464.277 103.955 464.714 104.174 465.036C104.393 465.358 104.689 465.539 104.999 465.539C105.308 465.539 105.605 465.358 105.824 465.036C106.042 464.714 106.165 464.277 106.165 463.821C106.165 463.366 106.042 462.929 105.824 462.607C105.605 462.285 105.308 462.104 104.999 462.104C104.689 462.104 104.393 462.285 104.174 462.607C103.955 462.929 103.832 463.366 103.832 463.821V463.821Z" stroke="#3E7CB1"/>
<path d="M112 556.586L98 577.2L112 556.586Z" stroke="#3E7CB1"/>
<path d="M99.168 669.964C99.168 672.242 99.7826 674.427 100.877 676.038C101.97 677.649 103.454 678.554 105.001 678.554C106.548 678.554 108.032 677.649 109.126 676.038C110.22 674.427 110.835 672.242 110.835 669.964C110.835 667.686 110.22 665.502 109.126 663.891C108.032 662.28 106.548 661.375 105.001 661.375C103.454 661.375 101.97 662.28 100.877 663.891C99.7826 665.502 99.168 667.686 99.168 669.964V669.964Z" stroke="#3E7CB1"/>
<path d="M112 762.729L98 783.343L112 762.729Z" stroke="#3E7CB1"/>
<path d="M112 865.8L98 886.414L112 865.8Z" stroke="#3E7CB1"/>
<path d="M182 41.2286L168 61.8429L182 41.2286Z" stroke="#3E7CB1"/>
<path d="M182 144.3L168 164.914L182 144.3Z" stroke="#3E7CB1"/>
<path d="M182 247.371L168 267.986L182 247.371Z" stroke="#3E7CB1"/>
<path d="M173.832 360.75C173.832 361.206 173.955 361.643 174.174 361.965C174.393 362.287 174.689 362.468 174.999 362.468C175.308 362.468 175.605 362.287 175.824 361.965C176.042 361.643 176.165 361.206 176.165 360.75C176.165 360.294 176.042 359.857 175.824 359.535C175.605 359.213 175.308 359.032 174.999 359.032C174.689 359.032 174.393 359.213 174.174 359.535C173.955 359.857 173.832 360.294 173.832 360.75V360.75Z" stroke="#3E7CB1"/>
<path d="M169.168 463.821C169.168 466.099 169.783 468.284 170.877 469.895C171.97 471.506 173.454 472.411 175.001 472.411C176.548 472.411 178.032 471.506 179.126 469.895C180.22 468.284 180.835 466.099 180.835 463.821C180.835 461.543 180.22 459.359 179.126 457.748C178.032 456.137 176.548 455.232 175.001 455.232C173.454 455.232 171.97 456.137 170.877 457.748C169.783 459.359 169.168 461.543 169.168 463.821V463.821Z" stroke="#3E7CB1"/>
<path d="M182 556.586L168 577.2L182 556.586Z" stroke="#3E7CB1"/>
<path d="M182 659.657L168 680.272L182 659.657Z" stroke="#3E7CB1"/>
<path d="M182 762.729L168 783.343L182 762.729Z" stroke="#3E7CB1"/>
<path d="M182 865.8L168 886.414L182 865.8Z" stroke="#3E7CB1"/>
<path d="M252 41.2286L238 61.8429L252 41.2286Z" stroke="#3E7CB1"/>
<path d="M252 144.3L238 164.914L252 144.3Z" stroke="#3E7CB1"/>
<path d="M252 247.371L238 267.986L252 247.371Z" stroke="#3E7CB1"/>
<path d="M252 350.443L238 371.057L252 350.443Z" stroke="#3E7CB1"/>
<path d="M252 453.514L238 474.129L252 453.514Z" stroke="#3E7CB1"/>
<path d="M243.832 566.893C243.832 567.349 243.955 567.785 244.174 568.108C244.393 568.43 244.689 568.611 244.999 568.611C245.308 568.611 245.605 568.43 245.824 568.108C246.042 567.785 246.165 567.349 246.165 566.893C246.165 566.437 246.042 566 245.824 565.678C245.605 565.356 245.308 565.175 244.999 565.175C244.689 565.175 244.393 565.356 244.174 565.678C243.955 566 243.832 566.437 243.832 566.893V566.893Z" stroke="#3E7CB1"/>
<path d="M247.335 666.529L242.668 673.4L247.335 666.529Z" stroke="#3E7CB1"/>
<path d="M247.335 769.6L242.668 776.471L247.335 769.6Z" stroke="#3E7CB1"/>
<path d="M239.168 876.107C239.168 878.385 239.783 880.57 240.877 882.181C241.97 883.791 243.454 884.696 245.001 884.696C246.548 884.696 248.032 883.791 249.126 882.181C250.22 880.57 250.835 878.385 250.835 876.107C250.835 873.829 250.22 871.644 249.126 870.034C248.032 868.423 246.548 867.518 245.001 867.518C243.454 867.518 241.97 868.423 240.877 870.034C239.783 871.644 239.168 873.829 239.168 876.107V876.107Z" stroke="#3E7CB1"/>
<path d="M317.335 48.1L312.668 54.9714L317.335 48.1Z" stroke="#3E7CB1"/>
<path d="M309.168 154.607C309.168 156.885 309.783 159.07 310.877 160.681C311.97 162.292 313.454 163.196 315.001 163.196C316.548 163.196 318.032 162.292 319.126 160.681C320.22 159.07 320.835 156.885 320.835 154.607C320.835 152.329 320.22 150.144 319.126 148.534C318.032 146.923 316.548 146.018 315.001 146.018C313.454 146.018 311.97 146.923 310.877 148.534C309.783 150.144 309.168 152.329 309.168 154.607V154.607Z" stroke="#3E7CB1"/>
<path d="M317.335 254.243L312.668 261.114L317.335 254.243Z" stroke="#3E7CB1"/>
<path d="M322 350.443L308 371.057L322 350.443Z" stroke="#3E7CB1"/>
<path d="M309.168 463.821C309.168 466.099 309.783 468.284 310.877 469.895C311.97 471.506 313.454 472.411 315.001 472.411C316.548 472.411 318.032 471.506 319.126 469.895C320.22 468.284 320.835 466.099 320.835 463.821C320.835 461.543 320.22 459.359 319.126 457.748C318.032 456.137 316.548 455.232 315.001 455.232C313.454 455.232 311.97 456.137 310.877 457.748C309.783 459.359 309.168 461.543 309.168 463.821V463.821Z" stroke="#3E7CB1"/>
<path d="M322 556.586L308 577.2L322 556.586Z" stroke="#3E7CB1"/>
<path d="M317.335 666.529L312.668 673.4L317.335 666.529Z" stroke="#3E7CB1"/>
<path d="M322 762.729L308 783.343L322 762.729Z" stroke="#3E7CB1"/>
<path d="M350 824.571L280 927.643L350 824.571Z" stroke="#3E7CB1" stroke-width="3"/>
<path d="M379.168 51.5357C379.168 53.8137 379.783 55.9984 380.877 57.6092C381.97 59.22 383.454 60.125 385.001 60.125C386.548 60.125 388.032 59.22 389.126 57.6092C390.22 55.9984 390.835 53.8137 390.835 51.5357C390.835 49.2577 390.22 47.073 389.126 45.4622C388.032 43.8514 386.548 42.9464 385.001 42.9464C383.454 42.9464 381.97 43.8514 380.877 45.4622C379.783 47.073 379.168 49.2577 379.168 51.5357V51.5357Z" stroke="#3E7CB1"/>
<path d="M420 103.071L350 206.143L420 103.071Z" stroke="#3E7CB1" stroke-width="3"/>
<path d="M379.168 257.679C379.168 259.957 379.783 262.141 380.877 263.752C381.97 265.363 383.454 266.268 385.001 266.268C386.548 266.268 388.032 265.363 389.126 263.752C390.22 262.141 390.835 259.957 390.835 257.679C390.835 255.401 390.22 253.216 389.126 251.605C388.032 249.994 386.548 249.089 385.001 249.089C383.454 249.089 381.97 249.994 380.877 251.605C379.783 253.216 379.168 255.401 379.168 257.679V257.679Z" stroke="#3E7CB1"/>
<path d="M379.168 360.75C379.168 363.028 379.783 365.213 380.877 366.823C381.97 368.434 383.454 369.339 385.001 369.339C386.548 369.339 388.032 368.434 389.126 366.823C390.22 365.213 390.835 363.028 390.835 360.75C390.835 358.472 390.22 356.287 389.126 354.676C388.032 353.066 386.548 352.161 385.001 352.161C383.454 352.161 381.97 353.066 380.877 354.676C379.783 356.287 379.168 358.472 379.168 360.75V360.75Z" stroke="#3E7CB1"/>
<path d="M379.168 463.821C379.168 466.099 379.783 468.284 380.877 469.895C381.97 471.506 383.454 472.411 385.001 472.411C386.548 472.411 388.032 471.506 389.126 469.895C390.22 468.284 390.835 466.099 390.835 463.821C390.835 461.543 390.22 459.359 389.126 457.748C388.032 456.137 386.548 455.232 385.001 455.232C383.454 455.232 381.97 456.137 380.877 457.748C379.783 459.359 379.168 461.543 379.168 463.821V463.821Z" stroke="#3E7CB1"/>
<path d="M392 556.586L378 577.2L392 556.586Z" stroke="#3E7CB1"/>
<path d="M392 659.657L378 680.272L392 659.657Z" stroke="#3E7CB1"/>
<path d="M379.168 773.036C379.168 775.314 379.783 777.498 380.877 779.109C381.97 780.72 383.454 781.625 385.001 781.625C386.548 781.625 388.032 780.72 389.126 779.109C390.22 777.498 390.835 775.314 390.835 773.036C390.835 770.758 390.22 768.573 389.126 766.962C388.032 765.351 386.548 764.446 385.001 764.446C383.454 764.446 381.97 765.351 380.877 766.962C379.783 768.573 379.168 770.758 379.168 773.036V773.036Z" stroke="#3E7CB1"/>
<path d="M379.168 876.107C379.168 878.385 379.783 880.57 380.877 882.181C381.97 883.791 383.454 884.696 385.001 884.696C386.548 884.696 388.032 883.791 389.126 882.181C390.22 880.57 390.835 878.385 390.835 876.107C390.835 873.829 390.22 871.644 389.126 870.034C388.032 868.423 386.548 867.518 385.001 867.518C383.454 867.518 381.97 868.423 380.877 870.034C379.783 871.644 379.168 873.829 379.168 876.107V876.107Z" stroke="#3E7CB1"/>
<path d="M462 41.2286L448 61.8429L462 41.2286Z" stroke="#3E7CB1"/>
<path d="M449.168 154.607C449.168 156.885 449.783 159.07 450.877 160.681C451.97 162.292 453.454 163.196 455.001 163.196C456.548 163.196 458.032 162.292 459.126 160.681C460.22 159.07 460.835 156.885 460.835 154.607C460.835 152.329 460.22 150.144 459.126 148.534C458.032 146.923 456.548 146.018 455.001 146.018C453.454 146.018 451.97 146.923 450.877 148.534C449.783 150.144 449.168 152.329 449.168 154.607V154.607Z" stroke="#3E7CB1"/>
<path d="M457.335 254.243L452.668 261.114L457.335 254.243Z" stroke="#3E7CB1"/>
<path d="M453.832 360.75C453.832 361.206 453.955 361.643 454.174 361.965C454.393 362.287 454.689 362.468 454.999 362.468C455.308 362.468 455.605 362.287 455.824 361.965C456.042 361.643 456.165 361.206 456.165 360.75C456.165 360.294 456.042 359.857 455.824 359.535C455.605 359.213 455.308 359.032 454.999 359.032C454.689 359.032 454.393 359.213 454.174 359.535C453.955 359.857 453.832 360.294 453.832 360.75V360.75Z" stroke="#3E7CB1"/>
<path d="M462 453.514L448 474.129L462 453.514Z" stroke="#3E7CB1"/>
<path d="M451.5 566.893C451.5 568.26 451.869 569.57 452.525 570.537C453.182 571.503 454.072 572.046 455 572.046C455.928 572.046 456.818 571.503 457.475 570.537C458.131 569.57 458.5 568.26 458.5 566.893C458.5 565.526 458.131 564.215 457.475 563.249C456.818 562.282 455.928 561.739 455 561.739C454.072 561.739 453.182 562.282 452.525 563.249C451.869 564.215 451.5 565.526 451.5 566.893V566.893Z" stroke="#3E7CB1"/>
<path d="M457.335 666.529L452.668 673.4L457.335 666.529Z" stroke="#3E7CB1"/>
<path d="M462 762.729L448 783.343L462 762.729Z" stroke="#3E7CB1"/>
<path d="M462 865.8L448 886.414L462 865.8Z" stroke="#3E7CB1"/>
<path d="M519.168 51.5357C519.168 53.8137 519.783 55.9984 520.877 57.6092C521.97 59.22 523.454 60.125 525.001 60.125C526.548 60.125 528.032 59.22 529.126 57.6092C530.22 55.9984 530.835 53.8137 530.835 51.5357C530.835 49.2577 530.22 47.073 529.126 45.4622C528.032 43.8514 526.548 42.9464 525.001 42.9464C523.454 42.9464 521.97 43.8514 520.877 45.4622C519.783 47.073 519.168 49.2577 519.168 51.5357V51.5357Z" stroke="#3E7CB1"/>
<path d="M519.168 154.607C519.168 156.885 519.783 159.07 520.877 160.681C521.97 162.292 523.454 163.196 525.001 163.196C526.548 163.196 528.032 162.292 529.126 160.681C530.22 159.07 530.835 156.885 530.835 154.607C530.835 152.329 530.22 150.144 529.126 148.534C528.032 146.923 526.548 146.018 525.001 146.018C523.454 146.018 521.97 146.923 520.877 148.534C519.783 150.144 519.168 152.329 519.168 154.607V154.607Z" stroke="#3E7CB1"/>
<path d="M521.5 257.679C521.5 259.045 521.869 260.356 522.525 261.323C523.182 262.289 524.072 262.832 525 262.832C525.928 262.832 526.818 262.289 527.475 261.323C528.131 260.356 528.5 259.045 528.5 257.679C528.5 256.312 528.131 255.001 527.475 254.034C526.818 253.068 525.928 252.525 525 252.525C524.072 252.525 523.182 253.068 522.525 254.034C521.869 255.001 521.5 256.312 521.5 257.679V257.679Z" stroke="#3E7CB1"/>
<path d="M532 350.443L518 371.057L532 350.443Z" stroke="#3E7CB1"/>
<path d="M523.832 463.821C523.832 464.277 523.955 464.714 524.174 465.036C524.393 465.358 524.689 465.539 524.999 465.539C525.308 465.539 525.605 465.358 525.824 465.036C526.042 464.714 526.165 464.277 526.165 463.821C526.165 463.366 526.042 462.929 525.824 462.607C525.605 462.285 525.308 462.104 524.999 462.104C524.689 462.104 524.393 462.285 524.174 462.607C523.955 462.929 523.832 463.366 523.832 463.821V463.821Z" stroke="#3E7CB1"/>
<path d="M519.168 566.893C519.168 569.171 519.783 571.356 520.877 572.966C521.97 574.577 523.454 575.482 525.001 575.482C526.548 575.482 528.032 574.577 529.126 572.966C530.22 571.356 530.835 569.171 530.835 566.893C530.835 564.615 530.22 562.43 529.126 560.819C528.032 559.209 526.548 558.304 525.001 558.304C523.454 558.304 521.97 559.209 520.877 560.819C519.783 562.43 519.168 564.615 519.168 566.893V566.893Z" stroke="#3E7CB1"/>
<path d="M521.5 669.964C521.5 671.331 521.869 672.642 522.525 673.608C523.182 674.575 524.072 675.118 525 675.118C525.928 675.118 526.818 674.575 527.475 673.608C528.131 672.642 528.5 671.331 528.5 669.964C528.5 668.598 528.131 667.287 527.475 666.32C526.818 665.354 525.928 664.811 525 664.811C524.072 664.811 523.182 665.354 522.525 666.32C521.869 667.287 521.5 668.598 521.5 669.964V669.964Z" stroke="#3E7CB1"/>
<path d="M519.168 773.036C519.168 775.314 519.783 777.498 520.877 779.109C521.97 780.72 523.454 781.625 525.001 781.625C526.548 781.625 528.032 780.72 529.126 779.109C530.22 777.498 530.835 775.314 530.835 773.036C530.835 770.758 530.22 768.573 529.126 766.962C528.032 765.351 526.548 764.446 525.001 764.446C523.454 764.446 521.97 765.351 520.877 766.962C519.783 768.573 519.168 770.758 519.168 773.036V773.036Z" stroke="#3E7CB1"/>
<path d="M532 865.8L518 886.414L532 865.8Z" stroke="#3E7CB1"/>
<path d="M597.335 48.1L592.668 54.9714L597.335 48.1Z" stroke="#3E7CB1"/>
<path d="M589.168 154.607C589.168 156.885 589.783 159.07 590.877 160.681C591.97 162.292 593.454 163.196 595.001 163.196C596.548 163.196 598.032 162.292 599.126 160.681C600.22 159.07 600.835 156.885 600.835 154.607C600.835 152.329 600.22 150.144 599.126 148.534C598.032 146.923 596.548 146.018 595.001 146.018C593.454 146.018 591.97 146.923 590.877 148.534C589.783 150.144 589.168 152.329 589.168 154.607V154.607Z" stroke="#3E7CB1"/>
<path d="M589.168 257.679C589.168 259.957 589.783 262.141 590.877 263.752C591.97 265.363 593.454 266.268 595.001 266.268C596.548 266.268 598.032 265.363 599.126 263.752C600.22 262.141 600.835 259.957 600.835 257.679C600.835 255.401 600.22 253.216 599.126 251.605C598.032 249.994 596.548 249.089 595.001 249.089C593.454 249.089 591.97 249.994 590.877 251.605C589.783 253.216 589.168 255.401 589.168 257.679V257.679Z" stroke="#3E7CB1"/>
<path d="M593.832 360.75C593.832 361.206 593.955 361.643 594.174 361.965C594.393 362.287 594.689 362.468 594.999 362.468C595.308 362.468 595.605 362.287 595.824 361.965C596.042 361.643 596.165 361.206 596.165 360.75C596.165 360.294 596.042 359.857 595.824 359.535C595.605 359.213 595.308 359.032 594.999 359.032C594.689 359.032 594.393 359.213 594.174 359.535C593.955 359.857 593.832 360.294 593.832 360.75V360.75Z" stroke="#3E7CB1"/>
<path d="M602 453.514L588 474.129L602 453.514Z" stroke="#3E7CB1"/>
<path d="M589.168 566.893C589.168 569.171 589.783 571.356 590.877 572.966C591.97 574.577 593.454 575.482 595.001 575.482C596.548 575.482 598.032 574.577 599.126 572.966C600.22 571.356 600.835 569.171 600.835 566.893C600.835 564.615 600.22 562.43 599.126 560.819C598.032 559.209 596.548 558.304 595.001 558.304C593.454 558.304 591.97 559.209 590.877 560.819C589.783 562.43 589.168 564.615 589.168 566.893V566.893Z" stroke="#3E7CB1"/>
<path d="M602 659.657L588 680.272L602 659.657Z" stroke="#3E7CB1"/>
<path d="M589.168 773.036C589.168 775.314 589.783 777.498 590.877 779.109C591.97 780.72 593.454 781.625 595.001 781.625C596.548 781.625 598.032 780.72 599.126 779.109C600.22 777.498 600.835 775.314 600.835 773.036C600.835 770.758 600.22 768.573 599.126 766.962C598.032 765.351 596.548 764.446 595.001 764.446C593.454 764.446 591.97 765.351 590.877 766.962C589.783 768.573 589.168 770.758 589.168 773.036V773.036Z" stroke="#3E7CB1"/>
<path d="M630 824.571L560 927.643L630 824.571Z" stroke="#3E7CB1" stroke-width="3"/>
<path d="M672 41.2286L658 61.8429L672 41.2286Z" stroke="#3E7CB1"/>
<path d="M667.335 151.171L662.668 158.043L667.335 151.171Z" stroke="#3E7CB1"/>
<path d="M672 247.371L658 267.986L672 247.371Z" stroke="#3E7CB1"/>
<path d="M659.168 360.75C659.168 363.028 659.783 365.213 660.877 366.823C661.97 368.434 663.454 369.339 665.001 369.339C666.548 369.339 668.032 368.434 669.126 366.823C670.22 365.213 670.835 363.028 670.835 360.75C670.835 358.472 670.22 356.287 669.126 354.676C668.032 353.066 666.548 352.161 665.001 352.161C663.454 352.161 661.97 353.066 660.877 354.676C659.783 356.287 659.168 358.472 659.168 360.75V360.75Z" stroke="#3E7CB1"/>
<path d="M661.5 463.821C661.5 465.188 661.869 466.499 662.525 467.466C663.182 468.432 664.072 468.975 665 468.975C665.928 468.975 666.818 468.432 667.475 467.466C668.131 466.499 668.5 465.188 668.5 463.821C668.5 462.455 668.131 461.144 667.475 460.177C666.818 459.211 665.928 458.668 665 458.668C664.072 458.668 663.182 459.211 662.525 460.177C661.869 461.144 661.5 462.455 661.5 463.821V463.821Z" stroke="#3E7CB1"/>
<path d="M667.335 563.457L662.668 570.329L667.335 563.457Z" stroke="#3E7CB1"/>
<path d="M659.168 669.964C659.168 672.242 659.783 674.427 660.877 676.038C661.97 677.649 663.454 678.554 665.001 678.554C666.548 678.554 668.032 677.649 669.126 676.038C670.22 674.427 670.835 672.242 670.835 669.964C670.835 667.686 670.22 665.502 669.126 663.891C668.032 662.28 666.548 661.375 665.001 661.375C663.454 661.375 661.97 662.28 660.877 663.891C659.783 665.502 659.168 667.686 659.168 669.964V669.964Z" stroke="#3E7CB1"/>
<path d="M700 721.5L630 824.571L700 721.5Z" stroke="#3E7CB1" stroke-width="3"/>
<path d="M661.5 876.107C661.5 877.474 661.869 878.785 662.525 879.751C663.182 880.718 664.072 881.261 665 881.261C665.928 881.261 666.818 880.718 667.475 879.751C668.131 878.785 668.5 877.474 668.5 876.107C668.5 874.74 668.131 873.43 667.475 872.463C666.818 871.497 665.928 870.954 665 870.954C664.072 870.954 663.182 871.497 662.525 872.463C661.869 873.43 661.5 874.74 661.5 876.107V876.107Z" stroke="#3E7CB1"/>
<path d="M729.168 51.5357C729.168 53.8137 729.783 55.9984 730.877 57.6092C731.97 59.22 733.454 60.125 735.001 60.125C736.548 60.125 738.032 59.22 739.126 57.6092C740.22 55.9984 740.835 53.8137 740.835 51.5357C740.835 49.2577 740.22 47.073 739.126 45.4622C738.032 43.8514 736.548 42.9464 735.001 42.9464C733.454 42.9464 731.97 43.8514 730.877 45.4622C729.783 47.073 729.168 49.2577 729.168 51.5357V51.5357Z" stroke="#3E7CB1"/>
<path d="M729.168 154.607C729.168 156.885 729.783 159.07 730.877 160.681C731.97 162.292 733.454 163.196 735.001 163.196C736.548 163.196 738.032 162.292 739.126 160.681C740.22 159.07 740.835 156.885 740.835 154.607C740.835 152.329 740.22 150.144 739.126 148.534C738.032 146.923 736.548 146.018 735.001 146.018C733.454 146.018 731.97 146.923 730.877 148.534C729.783 150.144 729.168 152.329 729.168 154.607V154.607Z" stroke="#3E7CB1"/>
<path d="M742 247.371L728 267.986L742 247.371Z" stroke="#3E7CB1"/>
<path d="M742 350.443L728 371.057L742 350.443Z" stroke="#3E7CB1"/>
<path d="M729.168 463.821C729.168 466.099 729.783 468.284 730.877 469.895C731.97 471.506 733.454 472.411 735.001 472.411C736.548 472.411 738.032 471.506 739.126 469.895C740.22 468.284 740.835 466.099 740.835 463.821C740.835 461.543 740.22 459.359 739.126 457.748C738.032 456.137 736.548 455.232 735.001 455.232C733.454 455.232 731.97 456.137 730.877 457.748C729.783 459.359 729.168 461.543 729.168 463.821V463.821Z" stroke="#3E7CB1"/>
<path d="M737.335 563.457L732.668 570.329L737.335 563.457Z" stroke="#3E7CB1"/>
<path d="M770 618.429L700 721.5L770 618.429Z" stroke="#3E7CB1" stroke-width="3"/>
<path d="M731.5 773.036C731.5 774.402 731.869 775.713 732.525 776.68C733.182 777.646 734.072 778.189 735 778.189C735.928 778.189 736.818 777.646 737.475 776.68C738.131 775.713 738.5 774.402 738.5 773.036C738.5 771.669 738.131 770.358 737.475 769.392C736.818 768.425 735.928 767.882 735 767.882C734.072 767.882 733.182 768.425 732.525 769.392C731.869 770.358 731.5 771.669 731.5 773.036V773.036Z" stroke="#3E7CB1"/>
<path d="M729.168 876.107C729.168 878.385 729.783 880.57 730.877 882.181C731.97 883.791 733.454 884.696 735.001 884.696C736.548 884.696 738.032 883.791 739.126 882.181C740.22 880.57 740.835 878.385 740.835 876.107C740.835 873.829 740.22 871.644 739.126 870.034C738.032 868.423 736.548 867.518 735.001 867.518C733.454 867.518 731.97 868.423 730.877 870.034C729.783 871.644 729.168 873.829 729.168 876.107V876.107Z" stroke="#3E7CB1"/>
<path d="M812 41.2286L798 61.8429L812 41.2286Z" stroke="#3E7CB1"/>
<path d="M799.168 154.607C799.168 156.885 799.783 159.07 800.877 160.681C801.97 162.292 803.454 163.196 805.001 163.196C806.548 163.196 808.032 162.292 809.126 160.681C810.22 159.07 810.835 156.885 810.835 154.607C810.835 152.329 810.22 150.144 809.126 148.534C808.032 146.923 806.548 146.018 805.001 146.018C803.454 146.018 801.97 146.923 800.877 148.534C799.783 150.144 799.168 152.329 799.168 154.607V154.607Z" stroke="#3E7CB1"/>
<path d="M799.168 257.679C799.168 259.957 799.783 262.141 800.877 263.752C801.97 265.363 803.454 266.268 805.001 266.268C806.548 266.268 808.032 265.363 809.126 263.752C810.22 262.141 810.835 259.957 810.835 257.679C810.835 255.401 810.22 253.216 809.126 251.605C808.032 249.994 806.548 249.089 805.001 249.089C803.454 249.089 801.97 249.994 800.877 251.605C799.783 253.216 799.168 255.401 799.168 257.679V257.679Z" stroke="#3E7CB1"/>
<path d="M799.168 360.75C799.168 363.028 799.783 365.213 800.877 366.823C801.97 368.434 803.454 369.339 805.001 369.339C806.548 369.339 808.032 368.434 809.126 366.823C810.22 365.213 810.835 363.028 810.835 360.75C810.835 358.472 810.22 356.287 809.126 354.676C808.032 353.066 806.548 352.161 805.001 352.161C803.454 352.161 801.97 353.066 800.877 354.676C799.783 356.287 799.168 358.472 799.168 360.75V360.75Z" stroke="#3E7CB1"/>
<path d="M812 453.514L798 474.129L812 453.514Z" stroke="#3E7CB1"/>
<path d="M803.832 566.893C803.832 567.349 803.955 567.785 804.174 568.108C804.393 568.43 804.689 568.611 804.999 568.611C805.308 568.611 805.605 568.43 805.824 568.108C806.042 567.785 806.165 567.349 806.165 566.893C806.165 566.437 806.042 566 805.824 565.678C805.605 565.356 805.308 565.175 804.999 565.175C804.689 565.175 804.393 565.356 804.174 565.678C803.955 566 803.832 566.437 803.832 566.893V566.893Z" stroke="#3E7CB1"/>
<path d="M812 659.657L798 680.272L812 659.657Z" stroke="#3E7CB1"/>
<path d="M799.168 773.036C799.168 775.314 799.783 777.498 800.877 779.109C801.97 780.72 803.454 781.625 805.001 781.625C806.548 781.625 808.032 780.72 809.126 779.109C810.22 777.498 810.835 775.314 810.835 773.036C810.835 770.758 810.22 768.573 809.126 766.962C808.032 765.351 806.548 764.446 805.001 764.446C803.454 764.446 801.97 765.351 800.877 766.962C799.783 768.573 799.168 770.758 799.168 773.036V773.036Z" stroke="#3E7CB1"/>
<path d="M807.335 872.671L802.668 879.543L807.335 872.671Z" stroke="#3E7CB1"/>
<path d="M871.5 51.5357C871.5 52.9025 871.869 54.2134 872.525 55.1798C873.182 56.1463 874.072 56.6893 875 56.6893C875.928 56.6893 876.818 56.1463 877.475 55.1798C878.131 54.2134 878.5 52.9025 878.5 51.5357C878.5 50.1689 878.131 48.8581 877.475 47.8916C876.818 46.9251 875.928 46.3821 875 46.3821C874.072 46.3821 873.182 46.9251 872.525 47.8916C871.869 48.8581 871.5 50.1689 871.5 51.5357V51.5357Z" stroke="#3E7CB1"/>
<path d="M869.168 154.607C869.168 156.885 869.783 159.07 870.877 160.681C871.97 162.292 873.454 163.196 875.001 163.196C876.548 163.196 878.032 162.292 879.126 160.681C880.22 159.07 880.835 156.885 880.835 154.607C880.835 152.329 880.22 150.144 879.126 148.534C878.032 146.923 876.548 146.018 875.001 146.018C873.454 146.018 871.97 146.923 870.877 148.534C869.783 150.144 869.168 152.329 869.168 154.607V154.607Z" stroke="#3E7CB1"/>
<path d="M877.335 254.243L872.668 261.114L877.335 254.243Z" stroke="#3E7CB1"/>
<path d="M882 350.443L868 371.057L882 350.443Z" stroke="#3E7CB1"/>
<path d="M869.168 463.821C869.168 466.099 869.783 468.284 870.877 469.895C871.97 471.506 873.454 472.411 875.001 472.411C876.548 472.411 878.032 471.506 879.126 469.895C880.22 468.284 880.835 466.099 880.835 463.821C880.835 461.543 880.22 459.359 879.126 457.748C878.032 456.137 876.548 455.232 875.001 455.232C873.454 455.232 871.97 456.137 870.877 457.748C869.783 459.359 869.168 461.543 869.168 463.821V463.821Z" stroke="#3E7CB1"/>
<path d="M869.168 566.893C869.168 569.171 869.783 571.356 870.877 572.966C871.97 574.577 873.454 575.482 875.001 575.482C876.548 575.482 878.032 574.577 879.126 572.966C880.22 571.356 880.835 569.171 880.835 566.893C880.835 564.615 880.22 562.43 879.126 560.819C878.032 559.209 876.548 558.304 875.001 558.304C873.454 558.304 871.97 559.209 870.877 560.819C869.783 562.43 869.168 564.615 869.168 566.893V566.893Z" stroke="#3E7CB1"/>
<path d="M877.335 666.529L872.668 673.4L877.335 666.529Z" stroke="#3E7CB1"/>
<path d="M869.168 773.036C869.168 775.314 869.783 777.498 870.877 779.109C871.97 780.72 873.454 781.625 875.001 781.625C876.548 781.625 878.032 780.72 879.126 779.109C880.22 777.498 880.835 775.314 880.835 773.036C880.835 770.758 880.22 768.573 879.126 766.962C878.032 765.351 876.548 764.446 875.001 764.446C873.454 764.446 871.97 765.351 870.877 766.962C869.783 768.573 869.168 770.758 869.168 773.036V773.036Z" stroke="#3E7CB1"/>
<path d="M877.335 872.671L872.668 879.543L877.335 872.671Z" stroke="#3E7CB1"/>
<path d="M947.335 48.1L942.668 54.9714L947.335 48.1Z" stroke="#3E7CB1"/>
<path d="M952 144.3L938 164.914L952 144.3Z" stroke="#3E7CB1"/>
<path d="M952 247.371L938 267.986L952 247.371Z" stroke="#3E7CB1"/>
<path d="M939.168 360.75C939.168 363.028 939.783 365.213 940.877 366.823C941.97 368.434 943.454 369.339 945.001 369.339C946.548 369.339 948.032 368.434 949.126 366.823C950.22 365.213 950.835 363.028 950.835 360.75C950.835 358.472 950.22 356.287 949.126 354.676C948.032 353.066 946.548 352.161 945.001 352.161C943.454 352.161 941.97 353.066 940.877 354.676C939.783 356.287 939.168 358.472 939.168 360.75V360.75Z" stroke="#3E7CB1"/>
<path d="M943.832 463.821C943.832 464.277 943.955 464.714 944.174 465.036C944.393 465.358 944.689 465.539 944.999 465.539C945.308 465.539 945.605 465.358 945.824 465.036C946.042 464.714 946.165 464.277 946.165 463.821C946.165 463.366 946.042 462.929 945.824 462.607C945.605 462.285 945.308 462.104 944.999 462.104C944.689 462.104 944.393 462.285 944.174 462.607C943.955 462.929 943.832 463.366 943.832 463.821V463.821Z" stroke="#3E7CB1"/>
<path d="M952 556.586L938 577.2L952 556.586Z" stroke="#3E7CB1"/>
<path d="M939.168 669.964C939.168 672.242 939.783 674.427 940.877 676.038C941.97 677.649 943.454 678.554 945.001 678.554C946.548 678.554 948.032 677.649 949.126 676.038C950.22 674.427 950.835 672.242 950.835 669.964C950.835 667.686 950.22 665.502 949.126 663.891C948.032 662.28 946.548 661.375 945.001 661.375C943.454 661.375 941.97 662.28 940.877 663.891C939.783 665.502 939.168 667.686 939.168 669.964V669.964Z" stroke="#3E7CB1"/>
<path d="M952 762.729L938 783.343L952 762.729Z" stroke="#3E7CB1"/>
<path d="M952 865.8L938 886.414L952 865.8Z" stroke="#3E7CB1"/>
<path d="M1022 41.2286L1008 61.8429L1022 41.2286Z" stroke="#3E7CB1"/>
<path d="M1022 144.3L1008 164.914L1022 144.3Z" stroke="#3E7CB1"/>
<path d="M1022 247.371L1008 267.986L1022 247.371Z" stroke="#3E7CB1"/>
<path d="M1013.83 360.75C1013.83 361.206 1013.95 361.643 1014.17 361.965C1014.39 362.287 1014.69 362.468 1015 362.468C1015.31 362.468 1015.6 362.287 1015.82 361.965C1016.04 361.643 1016.17 361.206 1016.17 360.75C1016.17 360.294 1016.04 359.857 1015.82 359.535C1015.6 359.213 1015.31 359.032 1015 359.032C1014.69 359.032 1014.39 359.213 1014.17 359.535C1013.95 359.857 1013.83 360.294 1013.83 360.75V360.75Z" stroke="#3E7CB1"/>
<path d="M1009.17 463.821C1009.17 466.099 1009.78 468.284 1010.88 469.895C1011.97 471.506 1013.45 472.411 1015 472.411C1016.55 472.411 1018.03 471.506 1019.13 469.895C1020.22 468.284 1020.83 466.099 1020.83 463.821C1020.83 461.543 1020.22 459.359 1019.13 457.748C1018.03 456.137 1016.55 455.232 1015 455.232C1013.45 455.232 1011.97 456.137 1010.88 457.748C1009.78 459.359 1009.17 461.543 1009.17 463.821V463.821Z" stroke="#3E7CB1"/>
<path d="M1022 556.586L1008 577.2L1022 556.586Z" stroke="#3E7CB1"/>
<path d="M1022 659.657L1008 680.272L1022 659.657Z" stroke="#3E7CB1"/>
<path d="M1022 762.729L1008 783.343L1022 762.729Z" stroke="#3E7CB1"/>
<path d="M1022 865.8L1008 886.414L1022 865.8Z" stroke="#3E7CB1"/>
<path d="M1092 41.2286L1078 61.8429L1092 41.2286Z" stroke="#3E7CB1"/>
<path d="M1092 144.3L1078 164.914L1092 144.3Z" stroke="#3E7CB1"/>
<path d="M1092 247.371L1078 267.986L1092 247.371Z" stroke="#3E7CB1"/>
<path d="M1092 350.443L1078 371.057L1092 350.443Z" stroke="#3E7CB1"/>
<path d="M1092 453.514L1078 474.129L1092 453.514Z" stroke="#3E7CB1"/>
<path d="M1083.83 566.893C1083.83 567.349 1083.95 567.785 1084.17 568.108C1084.39 568.43 1084.69 568.611 1085 568.611C1085.31 568.611 1085.6 568.43 1085.82 568.108C1086.04 567.785 1086.17 567.349 1086.17 566.893C1086.17 566.437 1086.04 566 1085.82 565.678C1085.6 565.356 1085.31 565.175 1085 565.175C1084.69 565.175 1084.39 565.356 1084.17 565.678C1083.95 566 1083.83 566.437 1083.83 566.893V566.893Z" stroke="#3E7CB1"/>
<path d="M1087.33 666.529L1082.67 673.4L1087.33 666.529Z" stroke="#3E7CB1"/>
<path d="M1087.33 769.6L1082.67 776.471L1087.33 769.6Z" stroke="#3E7CB1"/>
<path d="M1079.17 876.107C1079.17 878.385 1079.78 880.57 1080.88 882.181C1081.97 883.791 1083.45 884.696 1085 884.696C1086.55 884.696 1088.03 883.791 1089.13 882.181C1090.22 880.57 1090.83 878.385 1090.83 876.107C1090.83 873.829 1090.22 871.644 1089.13 870.034C1088.03 868.423 1086.55 867.518 1085 867.518C1083.45 867.518 1081.97 868.423 1080.88 870.034C1079.78 871.644 1079.17 873.829 1079.17 876.107V876.107Z" stroke="#3E7CB1"/>
<path d="M1157.33 48.1L1152.67 54.9714L1157.33 48.1Z" stroke="#3E7CB1"/>
<path d="M1149.17 154.607C1149.17 156.885 1149.78 159.07 1150.88 160.681C1151.97 162.292 1153.45 163.196 1155 163.196C1156.55 163.196 1158.03 162.292 1159.13 160.681C1160.22 159.07 1160.83 156.885 1160.83 154.607C1160.83 152.329 1160.22 150.144 1159.13 148.534C1158.03 146.923 1156.55 146.018 1155 146.018C1153.45 146.018 1151.97 146.923 1150.88 148.534C1149.78 150.144 1149.17 152.329 1149.17 154.607V154.607Z" stroke="#3E7CB1"/>
<path d="M1157.33 254.243L1152.67 261.114L1157.33 254.243Z" stroke="#3E7CB1"/>
<path d="M1162 350.443L1148 371.057L1162 350.443Z" stroke="#3E7CB1"/>
<path d="M1149.17 463.821C1149.17 466.099 1149.78 468.284 1150.88 469.895C1151.97 471.506 1153.45 472.411 1155 472.411C1156.55 472.411 1158.03 471.506 1159.13 469.895C1160.22 468.284 1160.83 466.099 1160.83 463.821C1160.83 461.543 1160.22 459.359 1159.13 457.748C1158.03 456.137 1156.55 455.232 1155 455.232C1153.45 455.232 1151.97 456.137 1150.88 457.748C1149.78 459.359 1149.17 461.543 1149.17 463.821V463.821Z" stroke="#3E7CB1"/>
<path d="M1162 556.586L1148 577.2L1162 556.586Z" stroke="#3E7CB1"/>
<path d="M1157.33 666.529L1152.67 673.4L1157.33 666.529Z" stroke="#3E7CB1"/>
<path d="M1162 762.729L1148 783.343L1162 762.729Z" stroke="#3E7CB1"/>
<path d="M1190 824.571L1120 927.643L1190 824.571Z" stroke="#3E7CB1" stroke-width="3"/>
<path d="M1219.17 51.5357C1219.17 53.8137 1219.78 55.9984 1220.88 57.6092C1221.97 59.22 1223.45 60.125 1225 60.125C1226.55 60.125 1228.03 59.22 1229.13 57.6092C1230.22 55.9984 1230.83 53.8137 1230.83 51.5357C1230.83 49.2577 1230.22 47.073 1229.13 45.4622C1228.03 43.8514 1226.55 42.9464 1225 42.9464C1223.45 42.9464 1221.97 43.8514 1220.88 45.4622C1219.78 47.073 1219.17 49.2577 1219.17 51.5357V51.5357Z" stroke="#3E7CB1"/>
<path d="M1260 103.071L1190 206.143L1260 103.071Z" stroke="#3E7CB1" stroke-width="3"/>
<path d="M1219.17 257.679C1219.17 259.957 1219.78 262.141 1220.88 263.752C1221.97 265.363 1223.45 266.268 1225 266.268C1226.55 266.268 1228.03 265.363 1229.13 263.752C1230.22 262.141 1230.83 259.957 1230.83 257.679C1230.83 255.401 1230.22 253.216 1229.13 251.605C1228.03 249.994 1226.55 249.089 1225 249.089C1223.45 249.089 1221.97 249.994 1220.88 251.605C1219.78 253.216 1219.17 255.401 1219.17 257.679V257.679Z" stroke="#3E7CB1"/>
<path d="M1219.17 360.75C1219.17 363.028 1219.78 365.213 1220.88 366.823C1221.97 368.434 1223.45 369.339 1225 369.339C1226.55 369.339 1228.03 368.434 1229.13 366.823C1230.22 365.213 1230.83 363.028 1230.83 360.75C1230.83 358.472 1230.22 356.287 1229.13 354.676C1228.03 353.066 1226.55 352.161 1225 352.161C1223.45 352.161 1221.97 353.066 1220.88 354.676C1219.78 356.287 1219.17 358.472 1219.17 360.75V360.75Z" stroke="#3E7CB1"/>
<path d="M1219.17 463.821C1219.17 466.099 1219.78 468.284 1220.88 469.895C1221.97 471.506 1223.45 472.411 1225 472.411C1226.55 472.411 1228.03 471.506 1229.13 469.895C1230.22 468.284 1230.83 466.099 1230.83 463.821C1230.83 461.543 1230.22 459.359 1229.13 457.748C1228.03 456.137 1226.55 455.232 1225 455.232C1223.45 455.232 1221.97 456.137 1220.88 457.748C1219.78 459.359 1219.17 461.543 1219.17 463.821V463.821Z" stroke="#3E7CB1"/>
<path d="M1232 556.586L1218 577.2L1232 556.586Z" stroke="#3E7CB1"/>
<path d="M1232 659.657L1218 680.272L1232 659.657Z" stroke="#3E7CB1"/>
<path d="M1219.17 773.036C1219.17 775.314 1219.78 777.498 1220.88 779.109C1221.97 780.72 1223.45 781.625 1225 781.625C1226.55 781.625 1228.03 780.72 1229.13 779.109C1230.22 777.498 1230.83 775.314 1230.83 773.036C1230.83 770.758 1230.22 768.573 1229.13 766.962C1228.03 765.351 1226.55 764.446 1225 764.446C1223.45 764.446 1221.97 765.351 1220.88 766.962C1219.78 768.573 1219.17 770.758 1219.17 773.036V773.036Z" stroke="#3E7CB1"/>
<path d="M1219.17 876.107C1219.17 878.385 1219.78 880.57 1220.88 882.181C1221.97 883.791 1223.45 884.696 1225 884.696C1226.55 884.696 1228.03 883.791 1229.13 882.181C1230.22 880.57 1230.83 878.385 1230.83 876.107C1230.83 873.829 1230.22 871.644 1229.13 870.034C1228.03 868.423 1226.55 867.518 1225 867.518C1223.45 867.518 1221.97 868.423 1220.88 870.034C1219.78 871.644 1219.17 873.829 1219.17 876.107V876.107Z" stroke="#3E7CB1"/>
<path d="M1302 41.2286L1288 61.8429L1302 41.2286Z" stroke="#3E7CB1"/>
<path d="M1289.17 154.607C1289.17 156.885 1289.78 159.07 1290.88 160.681C1291.97 162.292 1293.45 163.196 1295 163.196C1296.55 163.196 1298.03 162.292 1299.13 160.681C1300.22 159.07 1300.83 156.885 1300.83 154.607C1300.83 152.329 1300.22 150.144 1299.13 148.534C1298.03 146.923 1296.55 146.018 1295 146.018C1293.45 146.018 1291.97 146.923 1290.88 148.534C1289.78 150.144 1289.17 152.329 1289.17 154.607V154.607Z" stroke="#3E7CB1"/>
<path d="M1297.33 254.243L1292.67 261.114L1297.33 254.243Z" stroke="#3E7CB1"/>
<path d="M1293.83 360.75C1293.83 361.206 1293.95 361.643 1294.17 361.965C1294.39 362.287 1294.69 362.468 1295 362.468C1295.31 362.468 1295.6 362.287 1295.82 361.965C1296.04 361.643 1296.17 361.206 1296.17 360.75C1296.17 360.294 1296.04 359.857 1295.82 359.535C1295.6 359.213 1295.31 359.032 1295 359.032C1294.69 359.032 1294.39 359.213 1294.17 359.535C1293.95 359.857 1293.83 360.294 1293.83 360.75V360.75Z" stroke="#3E7CB1"/>
<path d="M1302 453.514L1288 474.129L1302 453.514Z" stroke="#3E7CB1"/>
<path d="M1291.5 566.893C1291.5 568.26 1291.87 569.57 1292.53 570.537C1293.18 571.503 1294.07 572.046 1295 572.046C1295.93 572.046 1296.82 571.503 1297.47 570.537C1298.13 569.57 1298.5 568.26 1298.5 566.893C1298.5 565.526 1298.13 564.215 1297.47 563.249C1296.82 562.282 1295.93 561.739 1295 561.739C1294.07 561.739 1293.18 562.282 1292.53 563.249C1291.87 564.215 1291.5 565.526 1291.5 566.893V566.893Z" stroke="#3E7CB1"/>
<path d="M1297.33 666.529L1292.67 673.4L1297.33 666.529Z" stroke="#3E7CB1"/>
<path d="M1302 762.729L1288 783.343L1302 762.729Z" stroke="#3E7CB1"/>
<path d="M1302 865.8L1288 886.414L1302 865.8Z" stroke="#3E7CB1"/>
<path d="M1359.17 51.5357C1359.17 53.8137 1359.78 55.9984 1360.88 57.6092C1361.97 59.22 1363.45 60.125 1365 60.125C1366.55 60.125 1368.03 59.22 1369.13 57.6092C1370.22 55.9984 1370.83 53.8137 1370.83 51.5357C1370.83 49.2577 1370.22 47.073 1369.13 45.4622C1368.03 43.8514 1366.55 42.9464 1365 42.9464C1363.45 42.9464 1361.97 43.8514 1360.88 45.4622C1359.78 47.073 1359.17 49.2577 1359.17 51.5357V51.5357Z" stroke="#3E7CB1"/>
<path d="M1359.17 154.607C1359.17 156.885 1359.78 159.07 1360.88 160.681C1361.97 162.292 1363.45 163.196 1365 163.196C1366.55 163.196 1368.03 162.292 1369.13 160.681C1370.22 159.07 1370.83 156.885 1370.83 154.607C1370.83 152.329 1370.22 150.144 1369.13 148.534C1368.03 146.923 1366.55 146.018 1365 146.018C1363.45 146.018 1361.97 146.923 1360.88 148.534C1359.78 150.144 1359.17 152.329 1359.17 154.607V154.607Z" stroke="#3E7CB1"/>
<path d="M1361.5 257.679C1361.5 259.045 1361.87 260.356 1362.53 261.323C1363.18 262.289 1364.07 262.832 1365 262.832C1365.93 262.832 1366.82 262.289 1367.47 261.323C1368.13 260.356 1368.5 259.045 1368.5 257.679C1368.5 256.312 1368.13 255.001 1367.47 254.034C1366.82 253.068 1365.93 252.525 1365 252.525C1364.07 252.525 1363.18 253.068 1362.53 254.034C1361.87 255.001 1361.5 256.312 1361.5 257.679V257.679Z" stroke="#3E7CB1"/>
<path d="M1372 350.443L1358 371.057L1372 350.443Z" stroke="#3E7CB1"/>
<path d="M1363.83 463.821C1363.83 464.277 1363.95 464.714 1364.17 465.036C1364.39 465.358 1364.69 465.539 1365 465.539C1365.31 465.539 1365.6 465.358 1365.82 465.036C1366.04 464.714 1366.17 464.277 1366.17 463.821C1366.17 463.366 1366.04 462.929 1365.82 462.607C1365.6 462.285 1365.31 462.104 1365 462.104C1364.69 462.104 1364.39 462.285 1364.17 462.607C1363.95 462.929 1363.83 463.366 1363.83 463.821V463.821Z" stroke="#3E7CB1"/>
<path d="M1359.17 566.893C1359.17 569.171 1359.78 571.356 1360.88 572.966C1361.97 574.577 1363.45 575.482 1365 575.482C1366.55 575.482 1368.03 574.577 1369.13 572.966C1370.22 571.356 1370.83 569.171 1370.83 566.893C1370.83 564.615 1370.22 562.43 1369.13 560.819C1368.03 559.209 1366.55 558.304 1365 558.304C1363.45 558.304 1361.97 559.209 1360.88 560.819C1359.78 562.43 1359.17 564.615 1359.17 566.893V566.893Z" stroke="#3E7CB1"/>
<path d="M1361.5 669.964C1361.5 671.331 1361.87 672.642 1362.53 673.608C1363.18 674.575 1364.07 675.118 1365 675.118C1365.93 675.118 1366.82 674.575 1367.47 673.608C1368.13 672.642 1368.5 671.331 1368.5 669.964C1368.5 668.598 1368.13 667.287 1367.47 666.32C1366.82 665.354 1365.93 664.811 1365 664.811C1364.07 664.811 1363.18 665.354 1362.53 666.32C1361.87 667.287 1361.5 668.598 1361.5 669.964V669.964Z" stroke="#3E7CB1"/>
<path d="M1359.17 773.036C1359.17 775.314 1359.78 777.498 1360.88 779.109C1361.97 780.72 1363.45 781.625 1365 781.625C1366.55 781.625 1368.03 780.72 1369.13 779.109C1370.22 777.498 1370.83 775.314 1370.83 773.036C1370.83 770.758 1370.22 768.573 1369.13 766.962C1368.03 765.351 1366.55 764.446 1365 764.446C1363.45 764.446 1361.97 765.351 1360.88 766.962C1359.78 768.573 1359.17 770.758 1359.17 773.036V773.036Z" stroke="#3E7CB1"/>
<path d="M1372 865.8L1358 886.414L1372 865.8Z" stroke="#3E7CB1"/>
<path d="M1437.33 48.1L1432.67 54.9714L1437.33 48.1Z" stroke="#3E7CB1"/>
<path d="M1429.17 154.607C1429.17 156.885 1429.78 159.07 1430.88 160.681C1431.97 162.292 1433.45 163.196 1435 163.196C1436.55 163.196 1438.03 162.292 1439.13 160.681C1440.22 159.07 1440.83 156.885 1440.83 154.607C1440.83 152.329 1440.22 150.144 1439.13 148.534C1438.03 146.923 1436.55 146.018 1435 146.018C1433.45 146.018 1431.97 146.923 1430.88 148.534C1429.78 150.144 1429.17 152.329 1429.17 154.607V154.607Z" stroke="#3E7CB1"/>
<path d="M1429.17 257.679C1429.17 259.957 1429.78 262.141 1430.88 263.752C1431.97 265.363 1433.45 266.268 1435 266.268C1436.55 266.268 1438.03 265.363 1439.13 263.752C1440.22 262.141 1440.83 259.957 1440.83 257.679C1440.83 255.401 1440.22 253.216 1439.13 251.605C1438.03 249.994 1436.55 249.089 1435 249.089C1433.45 249.089 1431.97 249.994 1430.88 251.605C1429.78 253.216 1429.17 255.401 1429.17 257.679V257.679Z" stroke="#3E7CB1"/>
<path d="M1433.83 360.75C1433.83 361.206 1433.95 361.643 1434.17 361.965C1434.39 362.287 1434.69 362.468 1435 362.468C1435.31 362.468 1435.6 362.287 1435.82 361.965C1436.04 361.643 1436.17 361.206 1436.17 360.75C1436.17 360.294 1436.04 359.857 1435.82 359.535C1435.6 359.213 1435.31 359.032 1435 359.032C1434.69 359.032 1434.39 359.213 1434.17 359.535C1433.95 359.857 1433.83 360.294 1433.83 360.75V360.75Z" stroke="#3E7CB1"/>
<path d="M1442 453.514L1428 474.129L1442 453.514Z" stroke="#3E7CB1"/>
<path d="M1429.17 566.893C1429.17 569.171 1429.78 571.356 1430.88 572.966C1431.97 574.577 1433.45 575.482 1435 575.482C1436.55 575.482 1438.03 574.577 1439.13 572.966C1440.22 571.356 1440.83 569.171 1440.83 566.893C1440.83 564.615 1440.22 562.43 1439.13 560.819C1438.03 559.209 1436.55 558.304 1435 558.304C1433.45 558.304 1431.97 559.209 1430.88 560.819C1429.78 562.43 1429.17 564.615 1429.17 566.893V566.893Z" stroke="#3E7CB1"/>
<path d="M1442 659.657L1428 680.272L1442 659.657Z" stroke="#3E7CB1"/>
<path d="M1429.17 773.036C1429.17 775.314 1429.78 777.498 1430.88 779.109C1431.97 780.72 1433.45 781.625 1435 781.625C1436.55 781.625 1438.03 780.72 1439.13 779.109C1440.22 777.498 1440.83 775.314 1440.83 773.036C1440.83 770.758 1440.22 768.573 1439.13 766.962C1438.03 765.351 1436.55 764.446 1435 764.446C1433.45 764.446 1431.97 765.351 1430.88 766.962C1429.78 768.573 1429.17 770.758 1429.17 773.036V773.036Z" stroke="#3E7CB1"/>
<path d="M1470 824.571L1400 927.643L1470 824.571Z" stroke="#3E7CB1" stroke-width="3"/>
<path d="M1512 41.2286L1498 61.8429L1512 41.2286Z" stroke="#3E7CB1"/>
<path d="M1507.33 151.171L1502.67 158.043L1507.33 151.171Z" stroke="#3E7CB1"/>
<path d="M1512 247.371L1498 267.986L1512 247.371Z" stroke="#3E7CB1"/>
<path d="M1499.17 360.75C1499.17 363.028 1499.78 365.213 1500.88 366.823C1501.97 368.434 1503.45 369.339 1505 369.339C1506.55 369.339 1508.03 368.434 1509.13 366.823C1510.22 365.213 1510.83 363.028 1510.83 360.75C1510.83 358.472 1510.22 356.287 1509.13 354.676C1508.03 353.066 1506.55 352.161 1505 352.161C1503.45 352.161 1501.97 353.066 1500.88 354.676C1499.78 356.287 1499.17 358.472 1499.17 360.75V360.75Z" stroke="#3E7CB1"/>
<path d="M1501.5 463.821C1501.5 465.188 1501.87 466.499 1502.53 467.466C1503.18 468.432 1504.07 468.975 1505 468.975C1505.93 468.975 1506.82 468.432 1507.47 467.466C1508.13 466.499 1508.5 465.188 1508.5 463.821C1508.5 462.455 1508.13 461.144 1507.47 460.177C1506.82 459.211 1505.93 458.668 1505 458.668C1504.07 458.668 1503.18 459.211 1502.53 460.177C1501.87 461.144 1501.5 462.455 1501.5 463.821V463.821Z" stroke="#3E7CB1"/>
<path d="M1507.33 563.457L1502.67 570.329L1507.33 563.457Z" stroke="#3E7CB1"/>
<path d="M1499.17 669.964C1499.17 672.242 1499.78 674.427 1500.88 676.038C1501.97 677.649 1503.45 678.554 1505 678.554C1506.55 678.554 1508.03 677.649 1509.13 676.038C1510.22 674.427 1510.83 672.242 1510.83 669.964C1510.83 667.686 1510.22 665.502 1509.13 663.891C1508.03 662.28 1506.55 661.375 1505 661.375C1503.45 661.375 1501.97 662.28 1500.88 663.891C1499.78 665.502 1499.17 667.686 1499.17 669.964V669.964Z" stroke="#3E7CB1"/>
<path d="M1540 721.5L1470 824.571L1540 721.5Z" stroke="#3E7CB1" stroke-width="3"/>
<path d="M1501.5 876.107C1501.5 877.474 1501.87 878.785 1502.53 879.751C1503.18 880.718 1504.07 881.261 1505 881.261C1505.93 881.261 1506.82 880.718 1507.47 879.751C1508.13 878.785 1508.5 877.474 1508.5 876.107C1508.5 874.74 1508.13 873.43 1507.47 872.463C1506.82 871.497 1505.93 870.954 1505 870.954C1504.07 870.954 1503.18 871.497 1502.53 872.463C1501.87 873.43 1501.5 874.74 1501.5 876.107V876.107Z" stroke="#3E7CB1"/>
<path d="M1569.17 51.5357C1569.17 53.8137 1569.78 55.9984 1570.88 57.6092C1571.97 59.22 1573.45 60.125 1575 60.125C1576.55 60.125 1578.03 59.22 1579.13 57.6092C1580.22 55.9984 1580.83 53.8137 1580.83 51.5357C1580.83 49.2577 1580.22 47.073 1579.13 45.4622C1578.03 43.8514 1576.55 42.9464 1575 42.9464C1573.45 42.9464 1571.97 43.8514 1570.88 45.4622C1569.78 47.073 1569.17 49.2577 1569.17 51.5357V51.5357Z" stroke="#3E7CB1"/>
<path d="M1569.17 154.607C1569.17 156.885 1569.78 159.07 1570.88 160.681C1571.97 162.292 1573.45 163.196 1575 163.196C1576.55 163.196 1578.03 162.292 1579.13 160.681C1580.22 159.07 1580.83 156.885 1580.83 154.607C1580.83 152.329 1580.22 150.144 1579.13 148.534C1578.03 146.923 1576.55 146.018 1575 146.018C1573.45 146.018 1571.97 146.923 1570.88 148.534C1569.78 150.144 1569.17 152.329 1569.17 154.607V154.607Z" stroke="#3E7CB1"/>
<path d="M1582 247.371L1568 267.986L1582 247.371Z" stroke="#3E7CB1"/>
<path d="M1582 350.443L1568 371.057L1582 350.443Z" stroke="#3E7CB1"/>
<path d="M1569.17 463.821C1569.17 466.099 1569.78 468.284 1570.88 469.895C1571.97 471.506 1573.45 472.411 1575 472.411C1576.55 472.411 1578.03 471.506 1579.13 469.895C1580.22 468.284 1580.83 466.099 1580.83 463.821C1580.83 461.543 1580.22 459.359 1579.13 457.748C1578.03 456.137 1576.55 455.232 1575 455.232C1573.45 455.232 1571.97 456.137 1570.88 457.748C1569.78 459.359 1569.17 461.543 1569.17 463.821V463.821Z" stroke="#3E7CB1"/>
<path d="M1577.33 563.457L1572.67 570.329L1577.33 563.457Z" stroke="#3E7CB1"/>
<path d="M1610 618.429L1540 721.5L1610 618.429Z" stroke="#3E7CB1" stroke-width="3"/>
<path d="M1571.5 773.036C1571.5 774.402 1571.87 775.713 1572.53 776.68C1573.18 777.646 1574.07 778.189 1575 778.189C1575.93 778.189 1576.82 777.646 1577.47 776.68C1578.13 775.713 1578.5 774.402 1578.5 773.036C1578.5 771.669 1578.13 770.358 1577.47 769.392C1576.82 768.425 1575.93 767.882 1575 767.882C1574.07 767.882 1573.18 768.425 1572.53 769.392C1571.87 770.358 1571.5 771.669 1571.5 773.036V773.036Z" stroke="#3E7CB1"/>
<path d="M1569.17 876.107C1569.17 878.385 1569.78 880.57 1570.88 882.181C1571.97 883.791 1573.45 884.696 1575 884.696C1576.55 884.696 1578.03 883.791 1579.13 882.181C1580.22 880.57 1580.83 878.385 1580.83 876.107C1580.83 873.829 1580.22 871.644 1579.13 870.034C1578.03 868.423 1576.55 867.518 1575 867.518C1573.45 867.518 1571.97 868.423 1570.88 870.034C1569.78 871.644 1569.17 873.829 1569.17 876.107V876.107Z" stroke="#3E7CB1"/>
<path d="M1652 41.2286L1638 61.8429L1652 41.2286Z" stroke="#3E7CB1"/>
<path d="M1639.17 154.607C1639.17 156.885 1639.78 159.07 1640.88 160.681C1641.97 162.292 1643.45 163.196 1645 163.196C1646.55 163.196 1648.03 162.292 1649.13 160.681C1650.22 159.07 1650.83 156.885 1650.83 154.607C1650.83 152.329 1650.22 150.144 1649.13 148.534C1648.03 146.923 1646.55 146.018 1645 146.018C1643.45 146.018 1641.97 146.923 1640.88 148.534C1639.78 150.144 1639.17 152.329 1639.17 154.607V154.607Z" stroke="#3E7CB1"/>
<path d="M1639.17 257.679C1639.17 259.957 1639.78 262.141 1640.88 263.752C1641.97 265.363 1643.45 266.268 1645 266.268C1646.55 266.268 1648.03 265.363 1649.13 263.752C1650.22 262.141 1650.83 259.957 1650.83 257.679C1650.83 255.401 1650.22 253.216 1649.13 251.605C1648.03 249.994 1646.55 249.089 1645 249.089C1643.45 249.089 1641.97 249.994 1640.88 251.605C1639.78 253.216 1639.17 255.401 1639.17 257.679V257.679Z" stroke="#3E7CB1"/>
<path d="M1639.17 360.75C1639.17 363.028 1639.78 365.213 1640.88 366.823C1641.97 368.434 1643.45 369.339 1645 369.339C1646.55 369.339 1648.03 368.434 1649.13 366.823C1650.22 365.213 1650.83 363.028 1650.83 360.75C1650.83 358.472 1650.22 356.287 1649.13 354.676C1648.03 353.066 1646.55 352.161 1645 352.161C1643.45 352.161 1641.97 353.066 1640.88 354.676C1639.78 356.287 1639.17 358.472 1639.17 360.75V360.75Z" stroke="#3E7CB1"/>
<path d="M1652 453.514L1638 474.129L1652 453.514Z" stroke="#3E7CB1"/>
<path d="M1643.83 566.893C1643.83 567.349 1643.95 567.785 1644.17 568.108C1644.39 568.43 1644.69 568.611 1645 568.611C1645.31 568.611 1645.6 568.43 1645.82 568.108C1646.04 567.785 1646.17 567.349 1646.17 566.893C1646.17 566.437 1646.04 566 1645.82 565.678C1645.6 565.356 1645.31 565.175 1645 565.175C1644.69 565.175 1644.39 565.356 1644.17 565.678C1643.95 566 1643.83 566.437 1643.83 566.893V566.893Z" stroke="#3E7CB1"/>
<path d="M1652 659.657L1638 680.272L1652 659.657Z" stroke="#3E7CB1"/>
<path d="M1639.17 773.036C1639.17 775.314 1639.78 777.498 1640.88 779.109C1641.97 780.72 1643.45 781.625 1645 781.625C1646.55 781.625 1648.03 780.72 1649.13 779.109C1650.22 777.498 1650.83 775.314 1650.83 773.036C1650.83 770.758 1650.22 768.573 1649.13 766.962C1648.03 765.351 1646.55 764.446 1645 764.446C1643.45 764.446 1641.97 765.351 1640.88 766.962C1639.78 768.573 1639.17 770.758 1639.17 773.036V773.036Z" stroke="#3E7CB1"/>
<path d="M1647.33 872.671L1642.67 879.543L1647.33 872.671Z" stroke="#3E7CB1"/>
</svg>
