<svg width="786" height="904" viewBox="0 0 786 904" fill="#ffffff" xmlns="http://www.w3.org/2000/svg">
<path d="M4.5 11.5357C4.5 12.9025 4.86875 14.2134 5.52513 15.1798C6.1815 16.1463 7.07174 16.6893 8 16.6893C8.92826 16.6893 9.8185 16.1463 10.4749 15.1798C11.1313 14.2134 11.5 12.9025 11.5 11.5357C11.5 10.1689 11.1313 8.85807 10.4749 7.89159C9.8185 6.92511 8.92826 6.38214 8 6.38214C7.07174 6.38214 6.1815 6.92511 5.52513 7.89159C4.86875 8.85807 4.5 10.1689 4.5 11.5357V11.5357Z" stroke="#3E7CB1"/>
<path d="M2.16602 114.607C2.16602 116.885 2.7806 119.07 3.87456 120.681C4.96852 122.292 6.45225 123.196 7.99935 123.196C9.54645 123.196 11.0302 122.292 12.1241 120.681C13.2181 119.07 13.8327 116.885 13.8327 114.607C13.8327 112.329 13.2181 110.144 12.1241 108.534C11.0302 106.923 9.54645 106.018 7.99935 106.018C6.45225 106.018 4.96852 106.923 3.87456 108.534C2.7806 110.144 2.16602 112.329 2.16602 114.607V114.607Z" stroke="#3E7CB1"/>
<path d="M10.3327 214.243L5.66602 221.114L10.3327 214.243Z" stroke="#3E7CB1"/>
<path d="M15 310.443L1 331.057L15 310.443Z" stroke="#3E7CB1"/>
<path d="M2.16602 423.821C2.16602 426.099 2.7806 428.284 3.87456 429.895C4.96852 431.506 6.45225 432.411 7.99935 432.411C9.54645 432.411 11.0302 431.506 12.1241 429.895C13.2181 428.284 13.8327 426.099 13.8327 423.821C13.8327 421.543 13.2181 419.359 12.1241 417.748C11.0302 416.137 9.54645 415.232 7.99935 415.232C6.45225 415.232 4.96852 416.137 3.87456 417.748C2.7806 419.359 2.16602 421.543 2.16602 423.821V423.821Z" stroke="#3E7CB1"/>
<path d="M2.16602 526.893C2.16602 529.171 2.7806 531.356 3.87456 532.966C4.96852 534.577 6.45225 535.482 7.99935 535.482C9.54645 535.482 11.0302 534.577 12.1241 532.966C13.2181 531.356 13.8327 529.171 13.8327 526.893C13.8327 524.615 13.2181 522.43 12.1241 520.819C11.0302 519.209 9.54645 518.304 7.99935 518.304C6.45225 518.304 4.96852 519.209 3.87456 520.819C2.7806 522.43 2.16602 524.615 2.16602 526.893V526.893Z" stroke="#3E7CB1"/>
<path d="M10.3327 626.529L5.66602 633.4L10.3327 626.529Z" stroke="#3E7CB1"/>
<path d="M2.16602 733.036C2.16602 735.314 2.7806 737.498 3.87456 739.109C4.96852 740.72 6.45225 741.625 7.99935 741.625C9.54645 741.625 11.0302 740.72 12.1241 739.109C13.2181 737.498 13.8327 735.314 13.8327 733.036C13.8327 730.758 13.2181 728.573 12.1241 726.962C11.0302 725.351 9.54645 724.446 7.99935 724.446C6.45225 724.446 4.96852 725.351 3.87456 726.962C2.7806 728.573 2.16602 730.758 2.16602 733.036V733.036Z" stroke="#3E7CB1"/>
<path d="M10.3327 832.671L5.66602 839.543L10.3327 832.671Z" stroke="#3E7CB1"/>
<path d="M80.3327 8.09998L75.666 14.9714L80.3327 8.09998Z" stroke="#3E7CB1"/>
<path d="M85 104.3L71 124.914L85 104.3Z" stroke="#3E7CB1"/>
<path d="M85 207.371L71 227.986L85 207.371Z" stroke="#3E7CB1"/>
<path d="M72.166 320.75C72.166 323.028 72.7806 325.213 73.8746 326.823C74.9685 328.434 76.4523 329.339 77.9993 329.339C79.5464 329.339 81.0302 328.434 82.1241 326.823C83.2181 325.213 83.8327 323.028 83.8327 320.75C83.8327 318.472 83.2181 316.287 82.1241 314.676C81.0302 313.066 79.5464 312.161 77.9993 312.161C76.4523 312.161 74.9685 313.066 73.8746 314.676C72.7806 316.287 72.166 318.472 72.166 320.75V320.75Z" stroke="#3E7CB1"/>
<path d="M76.834 423.821C76.834 424.277 76.9569 424.714 77.1757 425.036C77.3945 425.358 77.6912 425.539 78.0007 425.539C78.3101 425.539 78.6068 425.358 78.8256 425.036C79.0444 424.714 79.1673 424.277 79.1673 423.821C79.1673 423.366 79.0444 422.929 78.8256 422.607C78.6068 422.285 78.3101 422.104 78.0007 422.104C77.6912 422.104 77.3945 422.285 77.1757 422.607C76.9569 422.929 76.834 423.366 76.834 423.821V423.821Z" stroke="#3E7CB1"/>
<path d="M85 516.586L71 537.2L85 516.586Z" stroke="#3E7CB1"/>
<path d="M72.166 629.964C72.166 632.242 72.7806 634.427 73.8746 636.038C74.9685 637.649 76.4523 638.554 77.9993 638.554C79.5464 638.554 81.0302 637.649 82.1241 636.038C83.2181 634.427 83.8327 632.242 83.8327 629.964C83.8327 627.686 83.2181 625.502 82.1241 623.891C81.0302 622.28 79.5464 621.375 77.9993 621.375C76.4523 621.375 74.9685 622.28 73.8746 623.891C72.7806 625.502 72.166 627.686 72.166 629.964V629.964Z" stroke="#3E7CB1"/>
<path d="M85 722.729L71 743.343L85 722.729Z" stroke="#3E7CB1"/>
<path d="M85 825.8L71 846.414L85 825.8Z" stroke="#3E7CB1"/>
<path d="M155 1.22858L141 21.8429L155 1.22858Z" stroke="#3E7CB1"/>
<path d="M155 104.3L141 124.914L155 104.3Z" stroke="#3E7CB1"/>
<path d="M155 207.371L141 227.986L155 207.371Z" stroke="#3E7CB1"/>
<path d="M146.834 320.75C146.834 321.206 146.957 321.643 147.176 321.965C147.394 322.287 147.691 322.468 148.001 322.468C148.31 322.468 148.607 322.287 148.826 321.965C149.044 321.643 149.167 321.206 149.167 320.75C149.167 320.294 149.044 319.857 148.826 319.535C148.607 319.213 148.31 319.032 148.001 319.032C147.691 319.032 147.394 319.213 147.176 319.535C146.957 319.857 146.834 320.294 146.834 320.75V320.75Z" stroke="#3E7CB1"/>
<path d="M142.166 423.821C142.166 426.099 142.781 428.284 143.875 429.895C144.969 431.506 146.452 432.411 147.999 432.411C149.546 432.411 151.03 431.506 152.124 429.895C153.218 428.284 153.833 426.099 153.833 423.821C153.833 421.543 153.218 419.359 152.124 417.748C151.03 416.137 149.546 415.232 147.999 415.232C146.452 415.232 144.969 416.137 143.875 417.748C142.781 419.359 142.166 421.543 142.166 423.821V423.821Z" stroke="#3E7CB1"/>
<path d="M155 516.586L141 537.2L155 516.586Z" stroke="#3E7CB1"/>
<path d="M155 619.657L141 640.272L155 619.657Z" stroke="#3E7CB1"/>
<path d="M155 722.729L141 743.343L155 722.729Z" stroke="#3E7CB1"/>
<path d="M155 825.8L141 846.414L155 825.8Z" stroke="#3E7CB1"/>
<path d="M225 1.22858L211 21.8429L225 1.22858Z" stroke="#3E7CB1"/>
<path d="M225 104.3L211 124.914L225 104.3Z" stroke="#3E7CB1"/>
<path d="M225 207.371L211 227.986L225 207.371Z" stroke="#3E7CB1"/>
<path d="M225 310.443L211 331.057L225 310.443Z" stroke="#3E7CB1"/>
<path d="M225 413.514L211 434.129L225 413.514Z" stroke="#3E7CB1"/>
<path d="M216.834 526.893C216.834 527.349 216.957 527.785 217.176 528.108C217.394 528.43 217.691 528.611 218.001 528.611C218.31 528.611 218.607 528.43 218.826 528.108C219.044 527.785 219.167 527.349 219.167 526.893C219.167 526.437 219.044 526 218.826 525.678C218.607 525.356 218.31 525.175 218.001 525.175C217.691 525.175 217.394 525.356 217.176 525.678C216.957 526 216.834 526.437 216.834 526.893V526.893Z" stroke="#3E7CB1"/>
<path d="M220.333 626.529L215.666 633.4L220.333 626.529Z" stroke="#3E7CB1"/>
<path d="M220.333 729.6L215.666 736.471L220.333 729.6Z" stroke="#3E7CB1"/>
<path d="M212.166 836.107C212.166 838.385 212.781 840.57 213.875 842.181C214.969 843.791 216.452 844.696 217.999 844.696C219.546 844.696 221.03 843.791 222.124 842.181C223.218 840.57 223.833 838.385 223.833 836.107C223.833 833.829 223.218 831.644 222.124 830.034C221.03 828.423 219.546 827.518 217.999 827.518C216.452 827.518 214.969 828.423 213.875 830.034C212.781 831.644 212.166 833.829 212.166 836.107V836.107Z" stroke="#3E7CB1"/>
<path d="M290.333 8.09998L285.666 14.9714L290.333 8.09998Z" stroke="#3E7CB1"/>
<path d="M282.166 114.607C282.166 116.885 282.781 119.07 283.875 120.681C284.969 122.292 286.452 123.196 287.999 123.196C289.546 123.196 291.03 122.292 292.124 120.681C293.218 119.07 293.833 116.885 293.833 114.607C293.833 112.329 293.218 110.144 292.124 108.534C291.03 106.923 289.546 106.018 287.999 106.018C286.452 106.018 284.969 106.923 283.875 108.534C282.781 110.144 282.166 112.329 282.166 114.607V114.607Z" stroke="#3E7CB1"/>
<path d="M290.333 214.243L285.666 221.114L290.333 214.243Z" stroke="#3E7CB1"/>
<path d="M295 310.443L281 331.057L295 310.443Z" stroke="#3E7CB1"/>
<path d="M282.166 423.821C282.166 426.099 282.781 428.284 283.875 429.895C284.969 431.506 286.452 432.411 287.999 432.411C289.546 432.411 291.03 431.506 292.124 429.895C293.218 428.284 293.833 426.099 293.833 423.821C293.833 421.543 293.218 419.359 292.124 417.748C291.03 416.137 289.546 415.232 287.999 415.232C286.452 415.232 284.969 416.137 283.875 417.748C282.781 419.359 282.166 421.543 282.166 423.821V423.821Z" stroke="#3E7CB1"/>
<path d="M295 516.586L281 537.2L295 516.586Z" stroke="#3E7CB1"/>
<path d="M290.333 626.529L285.666 633.4L290.333 626.529Z" stroke="#3E7CB1"/>
<path d="M295 722.729L281 743.343L295 722.729Z" stroke="#3E7CB1"/>
<path d="M323 784.571L253 887.643L323 784.571Z" stroke="#3E7CB1" stroke-width="3"/>
<path d="M352.166 11.5357C352.166 13.8137 352.781 15.9984 353.875 17.6092C354.969 19.22 356.452 20.125 357.999 20.125C359.546 20.125 361.03 19.22 362.124 17.6092C363.218 15.9984 363.833 13.8137 363.833 11.5357C363.833 9.25768 363.218 7.07296 362.124 5.46215C361.03 3.85135 359.546 2.94641 357.999 2.94641C356.452 2.94641 354.969 3.85135 353.875 5.46215C352.781 7.07296 352.166 9.25768 352.166 11.5357V11.5357Z" stroke="#3E7CB1"/>
<path d="M393 63.0714L323 166.143L393 63.0714Z" stroke="#3E7CB1" stroke-width="3"/>
<path d="M352.166 217.679C352.166 219.957 352.781 222.141 353.875 223.752C354.969 225.363 356.452 226.268 357.999 226.268C359.546 226.268 361.03 225.363 362.124 223.752C363.218 222.141 363.833 219.957 363.833 217.679C363.833 215.401 363.218 213.216 362.124 211.605C361.03 209.994 359.546 209.089 357.999 209.089C356.452 209.089 354.969 209.994 353.875 211.605C352.781 213.216 352.166 215.401 352.166 217.679V217.679Z" stroke="#3E7CB1"/>
<path d="M352.166 320.75C352.166 323.028 352.781 325.213 353.875 326.823C354.969 328.434 356.452 329.339 357.999 329.339C359.546 329.339 361.03 328.434 362.124 326.823C363.218 325.213 363.833 323.028 363.833 320.75C363.833 318.472 363.218 316.287 362.124 314.676C361.03 313.066 359.546 312.161 357.999 312.161C356.452 312.161 354.969 313.066 353.875 314.676C352.781 316.287 352.166 318.472 352.166 320.75V320.75Z" stroke="#3E7CB1"/>
<path d="M352.166 423.821C352.166 426.099 352.781 428.284 353.875 429.895C354.969 431.506 356.452 432.411 357.999 432.411C359.546 432.411 361.03 431.506 362.124 429.895C363.218 428.284 363.833 426.099 363.833 423.821C363.833 421.543 363.218 419.359 362.124 417.748C361.03 416.137 359.546 415.232 357.999 415.232C356.452 415.232 354.969 416.137 353.875 417.748C352.781 419.359 352.166 421.543 352.166 423.821V423.821Z" stroke="#3E7CB1"/>
<path d="M365 516.586L351 537.2L365 516.586Z" stroke="#3E7CB1"/>
<path d="M365 619.657L351 640.272L365 619.657Z" stroke="#3E7CB1"/>
<path d="M352.166 733.036C352.166 735.314 352.781 737.498 353.875 739.109C354.969 740.72 356.452 741.625 357.999 741.625C359.546 741.625 361.03 740.72 362.124 739.109C363.218 737.498 363.833 735.314 363.833 733.036C363.833 730.758 363.218 728.573 362.124 726.962C361.03 725.351 359.546 724.446 357.999 724.446C356.452 724.446 354.969 725.351 353.875 726.962C352.781 728.573 352.166 730.758 352.166 733.036V733.036Z" stroke="#3E7CB1"/>
<path d="M352.166 836.107C352.166 838.385 352.781 840.57 353.875 842.181C354.969 843.791 356.452 844.696 357.999 844.696C359.546 844.696 361.03 843.791 362.124 842.181C363.218 840.57 363.833 838.385 363.833 836.107C363.833 833.829 363.218 831.644 362.124 830.034C361.03 828.423 359.546 827.518 357.999 827.518C356.452 827.518 354.969 828.423 353.875 830.034C352.781 831.644 352.166 833.829 352.166 836.107V836.107Z" stroke="#3E7CB1"/>
<path d="M435 1.22858L421 21.8429L435 1.22858Z" stroke="#3E7CB1"/>
<path d="M422.166 114.607C422.166 116.885 422.781 119.07 423.875 120.681C424.969 122.292 426.452 123.196 427.999 123.196C429.546 123.196 431.03 122.292 432.124 120.681C433.218 119.07 433.833 116.885 433.833 114.607C433.833 112.329 433.218 110.144 432.124 108.534C431.03 106.923 429.546 106.018 427.999 106.018C426.452 106.018 424.969 106.923 423.875 108.534C422.781 110.144 422.166 112.329 422.166 114.607V114.607Z" stroke="#3E7CB1"/>
<path d="M430.333 214.243L425.666 221.114L430.333 214.243Z" stroke="#3E7CB1"/>
<path d="M426.834 320.75C426.834 321.206 426.957 321.643 427.176 321.965C427.394 322.287 427.691 322.468 428.001 322.468C428.31 322.468 428.607 322.287 428.826 321.965C429.044 321.643 429.167 321.206 429.167 320.75C429.167 320.294 429.044 319.857 428.826 319.535C428.607 319.213 428.31 319.032 428.001 319.032C427.691 319.032 427.394 319.213 427.176 319.535C426.957 319.857 426.834 320.294 426.834 320.75V320.75Z" stroke="#3E7CB1"/>
<path d="M435 413.514L421 434.129L435 413.514Z" stroke="#3E7CB1"/>
<path d="M424.5 526.893C424.5 528.26 424.869 529.57 425.525 530.537C426.182 531.503 427.072 532.046 428 532.046C428.928 532.046 429.818 531.503 430.475 530.537C431.131 529.57 431.5 528.26 431.5 526.893C431.5 525.526 431.131 524.215 430.475 523.249C429.818 522.282 428.928 521.739 428 521.739C427.072 521.739 426.182 522.282 425.525 523.249C424.869 524.215 424.5 525.526 424.5 526.893V526.893Z" stroke="#3E7CB1"/>
<path d="M430.333 626.529L425.666 633.4L430.333 626.529Z" stroke="#3E7CB1"/>
<path d="M435 722.729L421 743.343L435 722.729Z" stroke="#3E7CB1"/>
<path d="M435 825.8L421 846.414L435 825.8Z" stroke="#3E7CB1"/>
<path d="M492.166 11.5357C492.166 13.8137 492.781 15.9984 493.875 17.6092C494.969 19.22 496.452 20.125 497.999 20.125C499.546 20.125 501.03 19.22 502.124 17.6092C503.218 15.9984 503.833 13.8137 503.833 11.5357C503.833 9.25768 503.218 7.07296 502.124 5.46215C501.03 3.85135 499.546 2.94641 497.999 2.94641C496.452 2.94641 494.969 3.85135 493.875 5.46215C492.781 7.07296 492.166 9.25768 492.166 11.5357V11.5357Z" stroke="#3E7CB1"/>
<path d="M492.166 114.607C492.166 116.885 492.781 119.07 493.875 120.681C494.969 122.292 496.452 123.196 497.999 123.196C499.546 123.196 501.03 122.292 502.124 120.681C503.218 119.07 503.833 116.885 503.833 114.607C503.833 112.329 503.218 110.144 502.124 108.534C501.03 106.923 499.546 106.018 497.999 106.018C496.452 106.018 494.969 106.923 493.875 108.534C492.781 110.144 492.166 112.329 492.166 114.607V114.607Z" stroke="#3E7CB1"/>
<path d="M494.5 217.679C494.5 219.045 494.869 220.356 495.525 221.323C496.182 222.289 497.072 222.832 498 222.832C498.928 222.832 499.818 222.289 500.475 221.323C501.131 220.356 501.5 219.045 501.5 217.679C501.5 216.312 501.131 215.001 500.475 214.034C499.818 213.068 498.928 212.525 498 212.525C497.072 212.525 496.182 213.068 495.525 214.034C494.869 215.001 494.5 216.312 494.5 217.679V217.679Z" stroke="#3E7CB1"/>
<path d="M505 310.443L491 331.057L505 310.443Z" stroke="#3E7CB1"/>
<path d="M496.834 423.821C496.834 424.277 496.957 424.714 497.176 425.036C497.394 425.358 497.691 425.539 498.001 425.539C498.31 425.539 498.607 425.358 498.826 425.036C499.044 424.714 499.167 424.277 499.167 423.821C499.167 423.366 499.044 422.929 498.826 422.607C498.607 422.285 498.31 422.104 498.001 422.104C497.691 422.104 497.394 422.285 497.176 422.607C496.957 422.929 496.834 423.366 496.834 423.821V423.821Z" stroke="#3E7CB1"/>
<path d="M492.166 526.893C492.166 529.171 492.781 531.356 493.875 532.966C494.969 534.577 496.452 535.482 497.999 535.482C499.546 535.482 501.03 534.577 502.124 532.966C503.218 531.356 503.833 529.171 503.833 526.893C503.833 524.615 503.218 522.43 502.124 520.819C501.03 519.209 499.546 518.304 497.999 518.304C496.452 518.304 494.969 519.209 493.875 520.819C492.781 522.43 492.166 524.615 492.166 526.893V526.893Z" stroke="#3E7CB1"/>
<path d="M494.5 629.964C494.5 631.331 494.869 632.642 495.525 633.608C496.182 634.575 497.072 635.118 498 635.118C498.928 635.118 499.818 634.575 500.475 633.608C501.131 632.642 501.5 631.331 501.5 629.964C501.5 628.598 501.131 627.287 500.475 626.32C499.818 625.354 498.928 624.811 498 624.811C497.072 624.811 496.182 625.354 495.525 626.32C494.869 627.287 494.5 628.598 494.5 629.964V629.964Z" stroke="#3E7CB1"/>
<path d="M492.166 733.036C492.166 735.314 492.781 737.498 493.875 739.109C494.969 740.72 496.452 741.625 497.999 741.625C499.546 741.625 501.03 740.72 502.124 739.109C503.218 737.498 503.833 735.314 503.833 733.036C503.833 730.758 503.218 728.573 502.124 726.962C501.03 725.351 499.546 724.446 497.999 724.446C496.452 724.446 494.969 725.351 493.875 726.962C492.781 728.573 492.166 730.758 492.166 733.036V733.036Z" stroke="#3E7CB1"/>
<path d="M505 825.8L491 846.414L505 825.8Z" stroke="#3E7CB1"/>
<path d="M570.333 8.09998L565.666 14.9714L570.333 8.09998Z" stroke="#3E7CB1"/>
<path d="M562.166 114.607C562.166 116.885 562.781 119.07 563.875 120.681C564.969 122.292 566.452 123.196 567.999 123.196C569.546 123.196 571.03 122.292 572.124 120.681C573.218 119.07 573.833 116.885 573.833 114.607C573.833 112.329 573.218 110.144 572.124 108.534C571.03 106.923 569.546 106.018 567.999 106.018C566.452 106.018 564.969 106.923 563.875 108.534C562.781 110.144 562.166 112.329 562.166 114.607V114.607Z" stroke="#3E7CB1"/>
<path d="M562.166 217.679C562.166 219.957 562.781 222.141 563.875 223.752C564.969 225.363 566.452 226.268 567.999 226.268C569.546 226.268 571.03 225.363 572.124 223.752C573.218 222.141 573.833 219.957 573.833 217.679C573.833 215.401 573.218 213.216 572.124 211.605C571.03 209.994 569.546 209.089 567.999 209.089C566.452 209.089 564.969 209.994 563.875 211.605C562.781 213.216 562.166 215.401 562.166 217.679V217.679Z" stroke="#3E7CB1"/>
<path d="M566.834 320.75C566.834 321.206 566.957 321.643 567.176 321.965C567.394 322.287 567.691 322.468 568.001 322.468C568.31 322.468 568.607 322.287 568.826 321.965C569.044 321.643 569.167 321.206 569.167 320.75C569.167 320.294 569.044 319.857 568.826 319.535C568.607 319.213 568.31 319.032 568.001 319.032C567.691 319.032 567.394 319.213 567.176 319.535C566.957 319.857 566.834 320.294 566.834 320.75V320.75Z" stroke="#3E7CB1"/>
<path d="M575 413.514L561 434.129L575 413.514Z" stroke="#3E7CB1"/>
<path d="M562.166 526.893C562.166 529.171 562.781 531.356 563.875 532.966C564.969 534.577 566.452 535.482 567.999 535.482C569.546 535.482 571.03 534.577 572.124 532.966C573.218 531.356 573.833 529.171 573.833 526.893C573.833 524.615 573.218 522.43 572.124 520.819C571.03 519.209 569.546 518.304 567.999 518.304C566.452 518.304 564.969 519.209 563.875 520.819C562.781 522.43 562.166 524.615 562.166 526.893V526.893Z" stroke="#3E7CB1"/>
<path d="M575 619.657L561 640.272L575 619.657Z" stroke="#3E7CB1"/>
<path d="M562.166 733.036C562.166 735.314 562.781 737.498 563.875 739.109C564.969 740.72 566.452 741.625 567.999 741.625C569.546 741.625 571.03 740.72 572.124 739.109C573.218 737.498 573.833 735.314 573.833 733.036C573.833 730.758 573.218 728.573 572.124 726.962C571.03 725.351 569.546 724.446 567.999 724.446C566.452 724.446 564.969 725.351 563.875 726.962C562.781 728.573 562.166 730.758 562.166 733.036V733.036Z" stroke="#3E7CB1"/>
<path d="M603 784.571L533 887.643L603 784.571Z" stroke="#3E7CB1" stroke-width="3"/>
<path d="M645 1.22858L631 21.8429L645 1.22858Z" stroke="#3E7CB1"/>
<path d="M640.333 111.171L635.666 118.043L640.333 111.171Z" stroke="#3E7CB1"/>
<path d="M645 207.371L631 227.986L645 207.371Z" stroke="#3E7CB1"/>
<path d="M632.166 320.75C632.166 323.028 632.781 325.213 633.875 326.823C634.969 328.434 636.452 329.339 637.999 329.339C639.546 329.339 641.03 328.434 642.124 326.823C643.218 325.213 643.833 323.028 643.833 320.75C643.833 318.472 643.218 316.287 642.124 314.676C641.03 313.066 639.546 312.161 637.999 312.161C636.452 312.161 634.969 313.066 633.875 314.676C632.781 316.287 632.166 318.472 632.166 320.75V320.75Z" stroke="#3E7CB1"/>
<path d="M634.5 423.821C634.5 425.188 634.869 426.499 635.525 427.466C636.182 428.432 637.072 428.975 638 428.975C638.928 428.975 639.818 428.432 640.475 427.466C641.131 426.499 641.5 425.188 641.5 423.821C641.5 422.455 641.131 421.144 640.475 420.177C639.818 419.211 638.928 418.668 638 418.668C637.072 418.668 636.182 419.211 635.525 420.177C634.869 421.144 634.5 422.455 634.5 423.821V423.821Z" stroke="#3E7CB1"/>
<path d="M640.333 523.457L635.666 530.329L640.333 523.457Z" stroke="#3E7CB1"/>
<path d="M632.166 629.964C632.166 632.242 632.781 634.427 633.875 636.038C634.969 637.649 636.452 638.554 637.999 638.554C639.546 638.554 641.03 637.649 642.124 636.038C643.218 634.427 643.833 632.242 643.833 629.964C643.833 627.686 643.218 625.502 642.124 623.891C641.03 622.28 639.546 621.375 637.999 621.375C636.452 621.375 634.969 622.28 633.875 623.891C632.781 625.502 632.166 627.686 632.166 629.964V629.964Z" stroke="#3E7CB1"/>
<path d="M673 681.5L603 784.571L673 681.5Z" stroke="#3E7CB1" stroke-width="3"/>
<path d="M634.5 836.107C634.5 837.474 634.869 838.785 635.525 839.751C636.182 840.718 637.072 841.261 638 841.261C638.928 841.261 639.818 840.718 640.475 839.751C641.131 838.785 641.5 837.474 641.5 836.107C641.5 834.74 641.131 833.43 640.475 832.463C639.818 831.497 638.928 830.954 638 830.954C637.072 830.954 636.182 831.497 635.525 832.463C634.869 833.43 634.5 834.74 634.5 836.107V836.107Z" stroke="#3E7CB1"/>
<path d="M702.166 11.5357C702.166 13.8137 702.781 15.9984 703.875 17.6092C704.969 19.22 706.452 20.125 707.999 20.125C709.546 20.125 711.03 19.22 712.124 17.6092C713.218 15.9984 713.833 13.8137 713.833 11.5357C713.833 9.25768 713.218 7.07296 712.124 5.46215C711.03 3.85135 709.546 2.94641 707.999 2.94641C706.452 2.94641 704.969 3.85135 703.875 5.46215C702.781 7.07296 702.166 9.25768 702.166 11.5357V11.5357Z" stroke="#3E7CB1"/>
<path d="M702.166 114.607C702.166 116.885 702.781 119.07 703.875 120.681C704.969 122.292 706.452 123.196 707.999 123.196C709.546 123.196 711.03 122.292 712.124 120.681C713.218 119.07 713.833 116.885 713.833 114.607C713.833 112.329 713.218 110.144 712.124 108.534C711.03 106.923 709.546 106.018 707.999 106.018C706.452 106.018 704.969 106.923 703.875 108.534C702.781 110.144 702.166 112.329 702.166 114.607V114.607Z" stroke="#3E7CB1"/>
<path d="M715 207.371L701 227.986L715 207.371Z" stroke="#3E7CB1"/>
<path d="M715 310.443L701 331.057L715 310.443Z" stroke="#3E7CB1"/>
<path d="M702.166 423.821C702.166 426.099 702.781 428.284 703.875 429.895C704.969 431.506 706.452 432.411 707.999 432.411C709.546 432.411 711.03 431.506 712.124 429.895C713.218 428.284 713.833 426.099 713.833 423.821C713.833 421.543 713.218 419.359 712.124 417.748C711.03 416.137 709.546 415.232 707.999 415.232C706.452 415.232 704.969 416.137 703.875 417.748C702.781 419.359 702.166 421.543 702.166 423.821V423.821Z" stroke="#3E7CB1"/>
<path d="M710.333 523.457L705.666 530.329L710.333 523.457Z" stroke="#3E7CB1"/>
<path d="M743 578.429L673 681.5L743 578.429Z" stroke="#3E7CB1" stroke-width="3"/>
<path d="M704.5 733.036C704.5 734.402 704.869 735.713 705.525 736.68C706.182 737.646 707.072 738.189 708 738.189C708.928 738.189 709.818 737.646 710.475 736.68C711.131 735.713 711.5 734.402 711.5 733.036C711.5 731.669 711.131 730.358 710.475 729.392C709.818 728.425 708.928 727.882 708 727.882C707.072 727.882 706.182 728.425 705.525 729.392C704.869 730.358 704.5 731.669 704.5 733.036V733.036Z" stroke="#3E7CB1"/>
<path d="M702.166 836.107C702.166 838.385 702.781 840.57 703.875 842.181C704.969 843.791 706.452 844.696 707.999 844.696C709.546 844.696 711.03 843.791 712.124 842.181C713.218 840.57 713.833 838.385 713.833 836.107C713.833 833.829 713.218 831.644 712.124 830.034C711.03 828.423 709.546 827.518 707.999 827.518C706.452 827.518 704.969 828.423 703.875 830.034C702.781 831.644 702.166 833.829 702.166 836.107V836.107Z" stroke="#3E7CB1"/>
<path d="M785 1.22858L771 21.8429L785 1.22858Z" stroke="#3E7CB1"/>
<path d="M772.166 114.607C772.166 116.885 772.781 119.07 773.875 120.681C774.969 122.292 776.452 123.196 777.999 123.196C779.546 123.196 781.03 122.292 782.124 120.681C783.218 119.07 783.833 116.885 783.833 114.607C783.833 112.329 783.218 110.144 782.124 108.534C781.03 106.923 779.546 106.018 777.999 106.018C776.452 106.018 774.969 106.923 773.875 108.534C772.781 110.144 772.166 112.329 772.166 114.607V114.607Z" stroke="#3E7CB1"/>
<path d="M772.166 217.679C772.166 219.957 772.781 222.141 773.875 223.752C774.969 225.363 776.452 226.268 777.999 226.268C779.546 226.268 781.03 225.363 782.124 223.752C783.218 222.141 783.833 219.957 783.833 217.679C783.833 215.401 783.218 213.216 782.124 211.605C781.03 209.994 779.546 209.089 777.999 209.089C776.452 209.089 774.969 209.994 773.875 211.605C772.781 213.216 772.166 215.401 772.166 217.679V217.679Z" stroke="#3E7CB1"/>
<path d="M772.166 320.75C772.166 323.028 772.781 325.213 773.875 326.823C774.969 328.434 776.452 329.339 777.999 329.339C779.546 329.339 781.03 328.434 782.124 326.823C783.218 325.213 783.833 323.028 783.833 320.75C783.833 318.472 783.218 316.287 782.124 314.676C781.03 313.066 779.546 312.161 777.999 312.161C776.452 312.161 774.969 313.066 773.875 314.676C772.781 316.287 772.166 318.472 772.166 320.75V320.75Z" stroke="#3E7CB1"/>
<path d="M785 413.514L771 434.129L785 413.514Z" stroke="#3E7CB1"/>
<path d="M776.834 526.893C776.834 527.349 776.957 527.785 777.176 528.108C777.394 528.43 777.691 528.611 778.001 528.611C778.31 528.611 778.607 528.43 778.826 528.108C779.044 527.785 779.167 527.349 779.167 526.893C779.167 526.437 779.044 526 778.826 525.678C778.607 525.356 778.31 525.175 778.001 525.175C777.691 525.175 777.394 525.356 777.176 525.678C776.957 526 776.834 526.437 776.834 526.893V526.893Z" stroke="#3E7CB1"/>
<path d="M785 619.657L771 640.272L785 619.657Z" stroke="#3E7CB1"/>
<path d="M772.166 733.036C772.166 735.314 772.781 737.498 773.875 739.109C774.969 740.72 776.452 741.625 777.999 741.625C779.546 741.625 781.03 740.72 782.124 739.109C783.218 737.498 783.833 735.314 783.833 733.036C783.833 730.758 783.218 728.573 782.124 726.962C781.03 725.351 779.546 724.446 777.999 724.446C776.452 724.446 774.969 725.351 773.875 726.962C772.781 728.573 772.166 730.758 772.166 733.036V733.036Z" stroke="#3E7CB1"/>
<path d="M780.333 832.671L775.666 839.543L780.333 832.671Z" stroke="#3E7CB1"/>
</svg>
